<?xml version="1.0" encoding="utf-8" standalone="no"?>
<!DOCTYPE svg PUBLIC "-//W3C//DTD SVG 1.1//EN"
  "http://www.w3.org/Graphics/SVG/1.1/DTD/svg11.dtd">
<!-- Created with matplotlib (https://matplotlib.org/) -->
<svg height="288pt" version="1.1" viewBox="0 0 1080 288" width="1080pt" xmlns="http://www.w3.org/2000/svg" xmlns:xlink="http://www.w3.org/1999/xlink">
 <metadata>
  <rdf:RDF xmlns:cc="http://creativecommons.org/ns#" xmlns:dc="http://purl.org/dc/elements/1.1/" xmlns:rdf="http://www.w3.org/1999/02/22-rdf-syntax-ns#">
   <cc:Work>
    <dc:type rdf:resource="http://purl.org/dc/dcmitype/StillImage"/>
    <dc:date>2022-03-19T13:14:58.397172</dc:date>
    <dc:format>image/svg+xml</dc:format>
    <dc:creator>
     <cc:Agent>
      <dc:title>Matplotlib v3.3.3, https://matplotlib.org/</dc:title>
     </cc:Agent>
    </dc:creator>
   </cc:Work>
  </rdf:RDF>
 </metadata>
 <defs>
  <style type="text/css">*{stroke-linecap:butt;stroke-linejoin:round;}</style>
 </defs>
 <g id="figure_1">
  <g id="patch_1">
   <path d="M 0 288 
L 1080 288 
L 1080 0 
L 0 0 
z
" style="fill:#f0f0f0;"/>
  </g>
  <g id="axes_1">
   <g id="patch_2">
    <path d="M 34.54 255.8 
L 1064.88 255.8 
L 1064.88 43.92 
L 34.54 43.92 
z
" style="fill:#f0f0f0;"/>
   </g>
   <g id="matplotlib.axis_1">
    <g id="xtick_1">
     <g id="text_1">
      <!-- Age -->
      <g style="fill:#262626;" transform="translate(282.339297 270.673594)scale(0.11 -0.11)">
       <defs>
        <path d="M -0.140625 0 
L 27.34375 71.578125 
L 37.546875 71.578125 
L 66.84375 0 
L 56.0625 0 
L 47.703125 21.6875 
L 17.78125 21.6875 
L 9.90625 0 
z
M 20.515625 29.390625 
L 44.78125 29.390625 
L 37.3125 49.21875 
Q 33.890625 58.25 32.234375 64.0625 
Q 30.859375 57.171875 28.375 50.390625 
z
" id="ArialMT-65"/>
        <path d="M 4.984375 -4.296875 
L 13.53125 -5.5625 
Q 14.0625 -9.515625 16.5 -11.328125 
Q 19.78125 -13.765625 25.4375 -13.765625 
Q 31.546875 -13.765625 34.859375 -11.328125 
Q 38.1875 -8.890625 39.359375 -4.5 
Q 40.046875 -1.8125 39.984375 6.78125 
Q 34.234375 0 25.640625 0 
Q 14.9375 0 9.078125 7.71875 
Q 3.21875 15.4375 3.21875 26.21875 
Q 3.21875 33.640625 5.90625 39.90625 
Q 8.59375 46.1875 13.6875 49.609375 
Q 18.796875 53.03125 25.6875 53.03125 
Q 34.859375 53.03125 40.828125 45.609375 
L 40.828125 51.859375 
L 48.921875 51.859375 
L 48.921875 7.03125 
Q 48.921875 -5.078125 46.453125 -10.125 
Q 44 -15.1875 38.640625 -18.109375 
Q 33.296875 -21.046875 25.484375 -21.046875 
Q 16.21875 -21.046875 10.5 -16.875 
Q 4.78125 -12.703125 4.984375 -4.296875 
z
M 12.25 26.859375 
Q 12.25 16.65625 16.296875 11.96875 
Q 20.359375 7.28125 26.46875 7.28125 
Q 32.515625 7.28125 36.609375 11.9375 
Q 40.71875 16.609375 40.71875 26.5625 
Q 40.71875 36.078125 36.5 40.90625 
Q 32.28125 45.75 26.3125 45.75 
Q 20.453125 45.75 16.34375 40.984375 
Q 12.25 36.234375 12.25 26.859375 
z
" id="ArialMT-103"/>
        <path d="M 42.09375 16.703125 
L 51.171875 15.578125 
Q 49.03125 7.625 43.21875 3.21875 
Q 37.40625 -1.171875 28.375 -1.171875 
Q 17 -1.171875 10.328125 5.828125 
Q 3.65625 12.84375 3.65625 25.484375 
Q 3.65625 38.578125 10.390625 45.796875 
Q 17.140625 53.03125 27.875 53.03125 
Q 38.28125 53.03125 44.875 45.953125 
Q 51.46875 38.875 51.46875 26.03125 
Q 51.46875 25.25 51.421875 23.6875 
L 12.75 23.6875 
Q 13.234375 15.140625 17.578125 10.59375 
Q 21.921875 6.0625 28.421875 6.0625 
Q 33.25 6.0625 36.671875 8.59375 
Q 40.09375 11.140625 42.09375 16.703125 
z
M 13.234375 30.90625 
L 42.1875 30.90625 
Q 41.609375 37.453125 38.875 40.71875 
Q 34.671875 45.796875 27.984375 45.796875 
Q 21.921875 45.796875 17.796875 41.75 
Q 13.671875 37.703125 13.234375 30.90625 
z
" id="ArialMT-101"/>
       </defs>
       <use xlink:href="#ArialMT-65"/>
       <use x="66.699219" xlink:href="#ArialMT-103"/>
       <use x="122.314453" xlink:href="#ArialMT-101"/>
      </g>
     </g>
    </g>
    <g id="xtick_2">
     <g id="text_2">
      <!-- Fare -->
      <g style="fill:#262626;" transform="translate(795.987344 270.673594)scale(0.11 -0.11)">
       <defs>
        <path d="M 8.203125 0 
L 8.203125 71.578125 
L 56.5 71.578125 
L 56.5 63.140625 
L 17.671875 63.140625 
L 17.671875 40.96875 
L 51.265625 40.96875 
L 51.265625 32.515625 
L 17.671875 32.515625 
L 17.671875 0 
z
" id="ArialMT-70"/>
        <path d="M 40.4375 6.390625 
Q 35.546875 2.25 31.03125 0.53125 
Q 26.515625 -1.171875 21.34375 -1.171875 
Q 12.796875 -1.171875 8.203125 3 
Q 3.609375 7.171875 3.609375 13.671875 
Q 3.609375 17.484375 5.34375 20.625 
Q 7.078125 23.78125 9.890625 25.6875 
Q 12.703125 27.59375 16.21875 28.5625 
Q 18.796875 29.25 24.03125 29.890625 
Q 34.671875 31.15625 39.703125 32.90625 
Q 39.75 34.71875 39.75 35.203125 
Q 39.75 40.578125 37.25 42.78125 
Q 33.890625 45.75 27.25 45.75 
Q 21.046875 45.75 18.09375 43.578125 
Q 15.140625 41.40625 13.71875 35.890625 
L 5.125 37.0625 
Q 6.296875 42.578125 8.984375 45.96875 
Q 11.671875 49.359375 16.75 51.1875 
Q 21.828125 53.03125 28.515625 53.03125 
Q 35.15625 53.03125 39.296875 51.46875 
Q 43.453125 49.90625 45.40625 47.53125 
Q 47.359375 45.171875 48.140625 41.546875 
Q 48.578125 39.3125 48.578125 33.453125 
L 48.578125 21.734375 
Q 48.578125 9.46875 49.140625 6.21875 
Q 49.703125 2.984375 51.375 0 
L 42.1875 0 
Q 40.828125 2.734375 40.4375 6.390625 
z
M 39.703125 26.03125 
Q 34.90625 24.078125 25.34375 22.703125 
Q 19.921875 21.921875 17.671875 20.9375 
Q 15.4375 19.96875 14.203125 18.09375 
Q 12.984375 16.21875 12.984375 13.921875 
Q 12.984375 10.40625 15.640625 8.0625 
Q 18.3125 5.71875 23.4375 5.71875 
Q 28.515625 5.71875 32.46875 7.9375 
Q 36.421875 10.15625 38.28125 14.015625 
Q 39.703125 17 39.703125 22.796875 
z
" id="ArialMT-97"/>
        <path d="M 6.5 0 
L 6.5 51.859375 
L 14.40625 51.859375 
L 14.40625 44 
Q 17.4375 49.515625 20 51.265625 
Q 22.5625 53.03125 25.640625 53.03125 
Q 30.078125 53.03125 34.671875 50.203125 
L 31.640625 42.046875 
Q 28.421875 43.953125 25.203125 43.953125 
Q 22.3125 43.953125 20.015625 42.21875 
Q 17.71875 40.484375 16.75 37.40625 
Q 15.28125 32.71875 15.28125 27.15625 
L 15.28125 0 
z
" id="ArialMT-114"/>
       </defs>
       <use xlink:href="#ArialMT-70"/>
       <use x="61.083984" xlink:href="#ArialMT-97"/>
       <use x="116.699219" xlink:href="#ArialMT-114"/>
       <use x="150" xlink:href="#ArialMT-101"/>
      </g>
     </g>
    </g>
   </g>
   <g id="matplotlib.axis_2">
    <g id="ytick_1">
     <g id="line2d_1">
      <path clip-path="url(#pf55aa59af4)" d="M 34.54 237.516969 
L 1064.88 237.516969 
" style="fill:none;stroke:#cbcbcb;"/>
     </g>
     <g id="text_3">
      <!-- −2 -->
      <g style="fill:#262626;" transform="translate(14.998281 241.453766)scale(0.11 -0.11)">
       <defs>
        <path d="M 52.828125 31.203125 
L 5.5625 31.203125 
L 5.5625 39.40625 
L 52.828125 39.40625 
z
" id="ArialMT-8722"/>
        <path d="M 50.34375 8.453125 
L 50.34375 0 
L 3.03125 0 
Q 2.9375 3.171875 4.046875 6.109375 
Q 5.859375 10.9375 9.828125 15.625 
Q 13.8125 20.3125 21.34375 26.46875 
Q 33.015625 36.03125 37.109375 41.625 
Q 41.21875 47.21875 41.21875 52.203125 
Q 41.21875 57.421875 37.46875 61 
Q 33.734375 64.59375 27.734375 64.59375 
Q 21.390625 64.59375 17.578125 60.78125 
Q 13.765625 56.984375 13.71875 50.25 
L 4.6875 51.171875 
Q 5.609375 61.28125 11.65625 66.578125 
Q 17.71875 71.875 27.9375 71.875 
Q 38.234375 71.875 44.234375 66.15625 
Q 50.25 60.453125 50.25 52 
Q 50.25 47.703125 48.484375 43.546875 
Q 46.734375 39.40625 42.65625 34.8125 
Q 38.578125 30.21875 29.109375 22.21875 
Q 21.1875 15.578125 18.9375 13.203125 
Q 16.703125 10.84375 15.234375 8.453125 
z
" id="ArialMT-50"/>
       </defs>
       <use xlink:href="#ArialMT-8722"/>
       <use x="58.398438" xlink:href="#ArialMT-50"/>
      </g>
     </g>
    </g>
    <g id="ytick_2">
     <g id="line2d_2">
      <path clip-path="url(#pf55aa59af4)" d="M 34.54 207.252126 
L 1064.88 207.252126 
" style="fill:none;stroke:#cbcbcb;"/>
     </g>
     <g id="text_4">
      <!-- 0 -->
      <g style="fill:#262626;" transform="translate(21.422969 211.188923)scale(0.11 -0.11)">
       <defs>
        <path d="M 4.15625 35.296875 
Q 4.15625 48 6.765625 55.734375 
Q 9.375 63.484375 14.515625 67.671875 
Q 19.671875 71.875 27.484375 71.875 
Q 33.25 71.875 37.59375 69.546875 
Q 41.9375 67.234375 44.765625 62.859375 
Q 47.609375 58.5 49.21875 52.21875 
Q 50.828125 45.953125 50.828125 35.296875 
Q 50.828125 22.703125 48.234375 14.96875 
Q 45.65625 7.234375 40.5 3 
Q 35.359375 -1.21875 27.484375 -1.21875 
Q 17.140625 -1.21875 11.234375 6.203125 
Q 4.15625 15.140625 4.15625 35.296875 
z
M 13.1875 35.296875 
Q 13.1875 17.671875 17.3125 11.828125 
Q 21.4375 6 27.484375 6 
Q 33.546875 6 37.671875 11.859375 
Q 41.796875 17.71875 41.796875 35.296875 
Q 41.796875 52.984375 37.671875 58.78125 
Q 33.546875 64.59375 27.390625 64.59375 
Q 21.34375 64.59375 17.71875 59.46875 
Q 13.1875 52.9375 13.1875 35.296875 
z
" id="ArialMT-48"/>
       </defs>
       <use xlink:href="#ArialMT-48"/>
      </g>
     </g>
    </g>
    <g id="ytick_3">
     <g id="line2d_3">
      <path clip-path="url(#pf55aa59af4)" d="M 34.54 176.987283 
L 1064.88 176.987283 
" style="fill:none;stroke:#cbcbcb;"/>
     </g>
     <g id="text_5">
      <!-- 2 -->
      <g style="fill:#262626;" transform="translate(21.422969 180.92408)scale(0.11 -0.11)">
       <use xlink:href="#ArialMT-50"/>
      </g>
     </g>
    </g>
    <g id="ytick_4">
     <g id="line2d_4">
      <path clip-path="url(#pf55aa59af4)" d="M 34.54 146.72244 
L 1064.88 146.72244 
" style="fill:none;stroke:#cbcbcb;"/>
     </g>
     <g id="text_6">
      <!-- 4 -->
      <g style="fill:#262626;" transform="translate(21.422969 150.659237)scale(0.11 -0.11)">
       <defs>
        <path d="M 32.328125 0 
L 32.328125 17.140625 
L 1.265625 17.140625 
L 1.265625 25.203125 
L 33.9375 71.578125 
L 41.109375 71.578125 
L 41.109375 25.203125 
L 50.78125 25.203125 
L 50.78125 17.140625 
L 41.109375 17.140625 
L 41.109375 0 
z
M 32.328125 25.203125 
L 32.328125 57.46875 
L 9.90625 25.203125 
z
" id="ArialMT-52"/>
       </defs>
       <use xlink:href="#ArialMT-52"/>
      </g>
     </g>
    </g>
    <g id="ytick_5">
     <g id="line2d_5">
      <path clip-path="url(#pf55aa59af4)" d="M 34.54 116.457597 
L 1064.88 116.457597 
" style="fill:none;stroke:#cbcbcb;"/>
     </g>
     <g id="text_7">
      <!-- 6 -->
      <g style="fill:#262626;" transform="translate(21.422969 120.394394)scale(0.11 -0.11)">
       <defs>
        <path d="M 49.75 54.046875 
L 41.015625 53.375 
Q 39.84375 58.546875 37.703125 60.890625 
Q 34.125 64.65625 28.90625 64.65625 
Q 24.703125 64.65625 21.53125 62.3125 
Q 17.390625 59.28125 14.984375 53.46875 
Q 12.59375 47.65625 12.5 36.921875 
Q 15.671875 41.75 20.265625 44.09375 
Q 24.859375 46.4375 29.890625 46.4375 
Q 38.671875 46.4375 44.84375 39.96875 
Q 51.03125 33.5 51.03125 23.25 
Q 51.03125 16.5 48.125 10.71875 
Q 45.21875 4.9375 40.140625 1.859375 
Q 35.0625 -1.21875 28.609375 -1.21875 
Q 17.625 -1.21875 10.6875 6.859375 
Q 3.765625 14.9375 3.765625 33.5 
Q 3.765625 54.25 11.421875 63.671875 
Q 18.109375 71.875 29.4375 71.875 
Q 37.890625 71.875 43.28125 67.140625 
Q 48.6875 62.40625 49.75 54.046875 
z
M 13.875 23.1875 
Q 13.875 18.65625 15.796875 14.5 
Q 17.71875 10.359375 21.1875 8.171875 
Q 24.65625 6 28.46875 6 
Q 34.03125 6 38.03125 10.484375 
Q 42.046875 14.984375 42.046875 22.703125 
Q 42.046875 30.125 38.078125 34.390625 
Q 34.125 38.671875 28.125 38.671875 
Q 22.171875 38.671875 18.015625 34.390625 
Q 13.875 30.125 13.875 23.1875 
z
" id="ArialMT-54"/>
       </defs>
       <use xlink:href="#ArialMT-54"/>
      </g>
     </g>
    </g>
    <g id="ytick_6">
     <g id="line2d_6">
      <path clip-path="url(#pf55aa59af4)" d="M 34.54 86.192754 
L 1064.88 86.192754 
" style="fill:none;stroke:#cbcbcb;"/>
     </g>
     <g id="text_8">
      <!-- 8 -->
      <g style="fill:#262626;" transform="translate(21.422969 90.129551)scale(0.11 -0.11)">
       <defs>
        <path d="M 17.671875 38.8125 
Q 12.203125 40.828125 9.5625 44.53125 
Q 6.9375 48.25 6.9375 53.421875 
Q 6.9375 61.234375 12.546875 66.546875 
Q 18.171875 71.875 27.484375 71.875 
Q 36.859375 71.875 42.578125 66.421875 
Q 48.296875 60.984375 48.296875 53.171875 
Q 48.296875 48.1875 45.671875 44.5 
Q 43.0625 40.828125 37.75 38.8125 
Q 44.34375 36.671875 47.78125 31.875 
Q 51.21875 27.09375 51.21875 20.453125 
Q 51.21875 11.28125 44.71875 5.03125 
Q 38.234375 -1.21875 27.640625 -1.21875 
Q 17.046875 -1.21875 10.546875 5.046875 
Q 4.046875 11.328125 4.046875 20.703125 
Q 4.046875 27.6875 7.59375 32.390625 
Q 11.140625 37.109375 17.671875 38.8125 
z
M 15.921875 53.71875 
Q 15.921875 48.640625 19.1875 45.40625 
Q 22.46875 42.1875 27.6875 42.1875 
Q 32.765625 42.1875 36.015625 45.375 
Q 39.265625 48.578125 39.265625 53.21875 
Q 39.265625 58.0625 35.90625 61.359375 
Q 32.5625 64.65625 27.59375 64.65625 
Q 22.5625 64.65625 19.234375 61.421875 
Q 15.921875 58.203125 15.921875 53.71875 
z
M 13.09375 20.65625 
Q 13.09375 16.890625 14.875 13.375 
Q 16.65625 9.859375 20.171875 7.921875 
Q 23.6875 6 27.734375 6 
Q 34.03125 6 38.125 10.046875 
Q 42.234375 14.109375 42.234375 20.359375 
Q 42.234375 26.703125 38.015625 30.859375 
Q 33.796875 35.015625 27.4375 35.015625 
Q 21.234375 35.015625 17.15625 30.90625 
Q 13.09375 26.8125 13.09375 20.65625 
z
" id="ArialMT-56"/>
       </defs>
       <use xlink:href="#ArialMT-56"/>
      </g>
     </g>
    </g>
    <g id="ytick_7">
     <g id="line2d_7">
      <path clip-path="url(#pf55aa59af4)" d="M 34.54 55.927911 
L 1064.88 55.927911 
" style="fill:none;stroke:#cbcbcb;"/>
     </g>
     <g id="text_9">
      <!-- 10 -->
      <g style="fill:#262626;" transform="translate(15.305938 59.864708)scale(0.11 -0.11)">
       <defs>
        <path d="M 37.25 0 
L 28.46875 0 
L 28.46875 56 
Q 25.296875 52.984375 20.140625 49.953125 
Q 14.984375 46.921875 10.890625 45.40625 
L 10.890625 53.90625 
Q 18.265625 57.375 23.78125 62.296875 
Q 29.296875 67.234375 31.59375 71.875 
L 37.25 71.875 
z
" id="ArialMT-49"/>
       </defs>
       <use xlink:href="#ArialMT-49"/>
       <use x="55.615234" xlink:href="#ArialMT-48"/>
      </g>
     </g>
    </g>
   </g>
   <g id="PolyCollection_1">
    <defs>
     <path d="M 293.990001 -41.830909 
L 290.259999 -41.830909 
L 288.819842 -42.849574 
L 286.618408 -43.86824 
L 283.491441 -44.886905 
L 279.371185 -45.90557 
L 274.347456 -46.924236 
L 268.700819 -47.942901 
L 262.884968 -48.961566 
L 257.451298 -49.980232 
L 252.932281 -50.998897 
L 249.719744 -52.017562 
L 247.978182 -53.036228 
L 247.617942 -54.054893 
L 248.326139 -55.073558 
L 249.629465 -56.092224 
L 250.955771 -57.110889 
L 251.673848 -58.129554 
L 251.114453 -59.14822 
L 248.5955 -60.166885 
L 243.477878 -61.185551 
L 235.263154 -62.204216 
L 223.718279 -63.222881 
L 208.989291 -64.241547 
L 191.658204 -65.260212 
L 172.709733 -66.278877 
L 153.40254 -67.297543 
L 135.071485 -68.316208 
L 118.909708 -69.334873 
L 105.784153 -70.353539 
L 96.126132 -71.372204 
L 89.916895 -72.390869 
L 86.765545 -73.409535 
L 86.057 -74.4282 
L 87.132046 -75.446865 
L 89.451289 -76.465531 
L 92.695736 -77.484196 
L 96.774665 -78.502861 
L 101.744979 -79.521527 
L 107.682373 -80.540192 
L 114.564227 -81.558857 
L 122.214873 -82.577523 
L 130.329919 -83.596188 
L 138.557259 -84.614853 
L 146.589894 -85.633519 
L 154.229491 -86.652184 
L 161.402457 -87.670849 
L 168.135152 -88.689515 
L 174.508221 -89.70818 
L 180.609594 -90.726845 
L 186.498517 -91.745511 
L 192.186774 -92.764176 
L 197.639993 -93.782841 
L 202.798643 -94.801507 
L 207.612443 -95.820172 
L 212.075236 -96.838837 
L 216.244799 -97.857503 
L 220.236864 -98.876168 
L 224.193458 -99.894833 
L 228.237182 -100.913499 
L 232.42938 -101.932164 
L 236.748449 -102.950829 
L 241.095818 -103.969495 
L 245.325748 -104.98816 
L 249.286289 -106.006825 
L 252.856404 -107.025491 
L 255.968691 -108.044156 
L 258.615133 -109.062821 
L 260.840138 -110.081487 
L 262.727468 -111.100152 
L 264.385614 -112.118817 
L 265.93266 -113.137483 
L 267.47971 -114.156148 
L 269.113003 -115.174813 
L 270.877628 -116.193479 
L 272.768084 -117.212144 
L 274.730711 -118.230809 
L 276.679765 -119.249475 
L 278.523664 -120.26814 
L 280.192942 -121.286805 
L 281.659564 -122.305471 
L 282.940022 -123.324136 
L 284.081381 -124.342801 
L 285.137082 -125.361467 
L 286.143608 -126.380132 
L 287.107871 -127.398797 
L 288.009255 -128.417463 
L 288.813191 -129.436128 
L 289.488671 -130.454793 
L 290.021859 -131.473459 
L 290.421128 -132.492124 
L 290.713189 -133.510789 
L 290.933421 -134.529455 
L 291.115009 -135.54812 
L 291.280997 -136.566785 
L 291.441423 -137.585451 
L 291.59537 -138.604116 
L 291.735944 -139.622781 
L 291.855598 -140.641447 
L 291.949783 -141.660112 
L 292.018199 -142.678777 
L 292.231801 -142.678777 
L 292.231801 -142.678777 
L 292.300217 -141.660112 
L 292.394402 -140.641447 
L 292.514056 -139.622781 
L 292.65463 -138.604116 
L 292.808577 -137.585451 
L 292.969003 -136.566785 
L 293.134991 -135.54812 
L 293.316579 -134.529455 
L 293.536811 -133.510789 
L 293.828872 -132.492124 
L 294.228141 -131.473459 
L 294.761329 -130.454793 
L 295.436809 -129.436128 
L 296.240745 -128.417463 
L 297.142129 -127.398797 
L 298.106392 -126.380132 
L 299.112918 -125.361467 
L 300.168619 -124.342801 
L 301.309978 -123.324136 
L 302.590436 -122.305471 
L 304.057058 -121.286805 
L 305.726336 -120.26814 
L 307.570235 -119.249475 
L 309.519289 -118.230809 
L 311.481916 -117.212144 
L 313.372372 -116.193479 
L 315.136997 -115.174813 
L 316.77029 -114.156148 
L 318.31734 -113.137483 
L 319.864386 -112.118817 
L 321.522532 -111.100152 
L 323.409862 -110.081487 
L 325.634867 -109.062821 
L 328.281309 -108.044156 
L 331.393596 -107.025491 
L 334.963711 -106.006825 
L 338.924252 -104.98816 
L 343.154182 -103.969495 
L 347.501551 -102.950829 
L 351.82062 -101.932164 
L 356.012818 -100.913499 
L 360.056542 -99.894833 
L 364.013136 -98.876168 
L 368.005201 -97.857503 
L 372.174764 -96.838837 
L 376.637557 -95.820172 
L 381.451357 -94.801507 
L 386.610007 -93.782841 
L 392.063226 -92.764176 
L 397.751483 -91.745511 
L 403.640406 -90.726845 
L 409.741779 -89.70818 
L 416.114848 -88.689515 
L 422.847543 -87.670849 
L 430.020509 -86.652184 
L 437.660106 -85.633519 
L 445.692741 -84.614853 
L 453.920081 -83.596188 
L 462.035127 -82.577523 
L 469.685773 -81.558857 
L 476.567627 -80.540192 
L 482.505021 -79.521527 
L 487.475335 -78.502861 
L 491.554264 -77.484196 
L 494.798711 -76.465531 
L 497.117954 -75.446865 
L 498.193 -74.4282 
L 497.484455 -73.409535 
L 494.333105 -72.390869 
L 488.123868 -71.372204 
L 478.465847 -70.353539 
L 465.340292 -69.334873 
L 449.178515 -68.316208 
L 430.84746 -67.297543 
L 411.540267 -66.278877 
L 392.591796 -65.260212 
L 375.260709 -64.241547 
L 360.531721 -63.222881 
L 348.986846 -62.204216 
L 340.772122 -61.185551 
L 335.6545 -60.166885 
L 333.135547 -59.14822 
L 332.576152 -58.129554 
L 333.294229 -57.110889 
L 334.620535 -56.092224 
L 335.923861 -55.073558 
L 336.632058 -54.054893 
L 336.271818 -53.036228 
L 334.530256 -52.017562 
L 331.317719 -50.998897 
L 326.798702 -49.980232 
L 321.365032 -48.961566 
L 315.549181 -47.942901 
L 309.902544 -46.924236 
L 304.878815 -45.90557 
L 300.758559 -44.886905 
L 297.631592 -43.86824 
L 295.430158 -42.849574 
L 293.990001 -41.830909 
z
" id="mee8c11ffc3" style="stroke:#404040;stroke-width:3;"/>
    </defs>
    <g clip-path="url(#pf55aa59af4)">
     <use style="fill:#1b86ba;stroke:#404040;stroke-width:3;" x="0" xlink:href="#mee8c11ffc3" y="288"/>
    </g>
   </g>
   <g id="PolyCollection_2">
    <defs>
     <path d="M 812.421425 -63.141177 
L 802.168575 -63.141177 
L 792.598444 -64.87156 
L 772.144774 -66.601943 
L 737.064453 -68.332326 
L 689.715543 -70.062709 
L 641.418441 -71.793092 
L 608.253755 -73.523475 
L 601.227 -75.253858 
L 619.529089 -76.984241 
L 652.974594 -78.714624 
L 689.756828 -80.445007 
L 721.867635 -82.17539 
L 745.895504 -83.905773 
L 761.731595 -85.636156 
L 771.12036 -87.366539 
L 776.314473 -89.096922 
L 779.169218 -90.827305 
L 781.04558 -92.557688 
L 783.053243 -94.288071 
L 785.933798 -96.018454 
L 789.690148 -97.748837 
L 793.598688 -99.47922 
L 796.784685 -101.209602 
L 798.852928 -102.939985 
L 800.018518 -104.670368 
L 800.733238 -106.400751 
L 801.274453 -108.131134 
L 801.669594 -109.861517 
L 801.884248 -111.5919 
L 801.983258 -113.322283 
L 802.134599 -115.052666 
L 802.516802 -116.783049 
L 803.212393 -118.513432 
L 804.149103 -120.243815 
L 805.137198 -121.974198 
L 805.977138 -123.704581 
L 806.544441 -125.434964 
L 806.797599 -127.165347 
L 806.741673 -128.89573 
L 806.409343 -130.626113 
L 805.878127 -132.356496 
L 805.284907 -134.086879 
L 804.795514 -135.817262 
L 804.540178 -137.547645 
L 804.557994 -139.278028 
L 804.774605 -141.008411 
L 805.025118 -142.738794 
L 805.134982 -144.469177 
L 805.03218 -146.19956 
L 804.813033 -147.929943 
L 804.694909 -149.660326 
L 804.867789 -151.390709 
L 805.35178 -153.121091 
L 805.986748 -154.851474 
L 806.562008 -156.581857 
L 806.955186 -158.31224 
L 807.165079 -160.042623 
L 807.254114 -161.773006 
L 807.284421 -163.503389 
L 807.292751 -165.233772 
L 807.294607 -166.964155 
L 807.294944 -168.694538 
L 807.294993 -170.424921 
L 807.294999 -172.155304 
L 807.295 -173.885687 
L 807.295 -175.61607 
L 807.295 -177.346453 
L 807.295 -179.076836 
L 807.295 -180.807219 
L 807.295 -182.537602 
L 807.295 -184.267985 
L 807.295 -185.998368 
L 807.295 -187.728751 
L 807.295 -189.459134 
L 807.295 -191.189517 
L 807.295 -192.9199 
L 807.295 -194.650283 
L 807.295 -196.380666 
L 807.295 -198.111049 
L 807.295 -199.841432 
L 807.295 -201.571815 
L 807.295 -203.302198 
L 807.295 -205.03258 
L 807.294998 -206.762963 
L 807.29498 -208.493346 
L 807.294856 -210.223729 
L 807.294149 -211.954112 
L 807.290866 -213.684495 
L 807.278522 -215.414878 
L 807.241096 -217.145261 
L 807.150269 -218.875644 
L 806.97606 -220.606027 
L 806.718139 -222.33641 
L 806.43866 -224.066793 
L 806.251641 -225.797176 
L 806.251638 -227.527559 
L 806.438655 -229.257942 
L 806.718133 -230.988325 
L 806.976055 -232.718708 
L 807.150267 -234.449091 
L 807.439733 -234.449091 
L 807.439733 -234.449091 
L 807.613945 -232.718708 
L 807.871867 -230.988325 
L 808.151345 -229.257942 
L 808.338362 -227.527559 
L 808.338359 -225.797176 
L 808.15134 -224.066793 
L 807.871861 -222.33641 
L 807.61394 -220.606027 
L 807.439731 -218.875644 
L 807.348904 -217.145261 
L 807.311478 -215.414878 
L 807.299134 -213.684495 
L 807.295851 -211.954112 
L 807.295144 -210.223729 
L 807.29502 -208.493346 
L 807.295002 -206.762963 
L 807.295 -205.03258 
L 807.295 -203.302198 
L 807.295 -201.571815 
L 807.295 -199.841432 
L 807.295 -198.111049 
L 807.295 -196.380666 
L 807.295 -194.650283 
L 807.295 -192.9199 
L 807.295 -191.189517 
L 807.295 -189.459134 
L 807.295 -187.728751 
L 807.295 -185.998368 
L 807.295 -184.267985 
L 807.295 -182.537602 
L 807.295 -180.807219 
L 807.295 -179.076836 
L 807.295 -177.346453 
L 807.295 -175.61607 
L 807.295 -173.885687 
L 807.295001 -172.155304 
L 807.295007 -170.424921 
L 807.295056 -168.694538 
L 807.295393 -166.964155 
L 807.297249 -165.233772 
L 807.305579 -163.503389 
L 807.335886 -161.773006 
L 807.424921 -160.042623 
L 807.634814 -158.31224 
L 808.027992 -156.581857 
L 808.603252 -154.851474 
L 809.23822 -153.121091 
L 809.722211 -151.390709 
L 809.895091 -149.660326 
L 809.776967 -147.929943 
L 809.55782 -146.19956 
L 809.455018 -144.469177 
L 809.564882 -142.738794 
L 809.815395 -141.008411 
L 810.032006 -139.278028 
L 810.049822 -137.547645 
L 809.794486 -135.817262 
L 809.305093 -134.086879 
L 808.711873 -132.356496 
L 808.180657 -130.626113 
L 807.848327 -128.89573 
L 807.792401 -127.165347 
L 808.045559 -125.434964 
L 808.612862 -123.704581 
L 809.452802 -121.974198 
L 810.440897 -120.243815 
L 811.377607 -118.513432 
L 812.073198 -116.783049 
L 812.455401 -115.052666 
L 812.606742 -113.322283 
L 812.705752 -111.5919 
L 812.920406 -109.861517 
L 813.315547 -108.131134 
L 813.856762 -106.400751 
L 814.571482 -104.670368 
L 815.737072 -102.939985 
L 817.805315 -101.209602 
L 820.991312 -99.47922 
L 824.899852 -97.748837 
L 828.656202 -96.018454 
L 831.536757 -94.288071 
L 833.54442 -92.557688 
L 835.420782 -90.827305 
L 838.275527 -89.096922 
L 843.46964 -87.366539 
L 852.858405 -85.636156 
L 868.694496 -83.905773 
L 892.722365 -82.17539 
L 924.833172 -80.445007 
L 961.615406 -78.714624 
L 995.060911 -76.984241 
L 1013.363 -75.253858 
L 1006.336245 -73.523475 
L 973.171559 -71.793092 
L 924.874457 -70.062709 
L 877.525547 -68.332326 
L 842.445226 -66.601943 
L 821.991556 -64.87156 
L 812.421425 -63.141177 
z
" id="m869476fb5b" style="stroke:#404040;stroke-width:3;"/>
    </defs>
    <g clip-path="url(#pf55aa59af4)">
     <use style="fill:#e36149;stroke:#404040;stroke-width:3;" x="0" xlink:href="#m869476fb5b" y="288"/>
    </g>
   </g>
   <g id="line2d_8">
    <path clip-path="url(#pf55aa59af4)" d="M 292.125 238.382386 
L 292.125 170.25283 
" style="fill:none;stroke:#404040;stroke-width:3;"/>
   </g>
   <g id="line2d_9">
    <path clip-path="url(#pf55aa59af4)" d="M 292.125 217.133423 
L 292.125 198.113296 
" style="fill:none;stroke:#404040;stroke-width:9;"/>
   </g>
   <g id="line2d_10">
    <path clip-path="url(#pf55aa59af4)" d="M 807.295 217.072118 
L 807.295 197.31384 
" style="fill:none;stroke:#404040;stroke-width:3;"/>
   </g>
   <g id="line2d_11">
    <path clip-path="url(#pf55aa59af4)" d="M 807.295 214.663128 
L 807.295 207.607143 
" style="fill:none;stroke:#404040;stroke-width:9;"/>
   </g>
   <g id="patch_3">
    <path d="M 34.54 255.8 
L 34.54 43.92 
" style="fill:none;stroke:#f0f0f0;stroke-linecap:square;stroke-linejoin:miter;stroke-width:3;"/>
   </g>
   <g id="patch_4">
    <path d="M 1064.88 255.8 
L 1064.88 43.92 
" style="fill:none;stroke:#f0f0f0;stroke-linecap:square;stroke-linejoin:miter;stroke-width:3;"/>
   </g>
   <g id="patch_5">
    <path d="M 34.54 255.8 
L 1064.88 255.8 
" style="fill:none;stroke:#f0f0f0;stroke-linecap:square;stroke-linejoin:miter;stroke-width:3;"/>
   </g>
   <g id="patch_6">
    <path d="M 34.54 43.92 
L 1064.88 43.92 
" style="fill:none;stroke:#f0f0f0;stroke-linecap:square;stroke-linejoin:miter;stroke-width:3;"/>
   </g>
   <g id="PathCollection_1">
    <defs>
     <path d="M 0 3 
C 0.795609 3 1.55874 2.683901 2.12132 2.12132 
C 2.683901 1.55874 3 0.795609 3 0 
C 3 -0.795609 2.683901 -1.55874 2.12132 -2.12132 
C 1.55874 -2.683901 0.795609 -3 0 -3 
C -0.795609 -3 -1.55874 -2.683901 -2.12132 -2.12132 
C -2.683901 -1.55874 -3 -0.795609 -3 0 
C -3 0.795609 -2.683901 1.55874 -2.12132 2.12132 
C -1.55874 2.683901 -0.795609 3 0 3 
z
" id="m7c2c591da6" style="stroke:#404040;stroke-width:0.5;"/>
    </defs>
    <g clip-path="url(#pf55aa59af4)">
     <use style="fill:#ffffff;stroke:#404040;stroke-width:0.5;" x="292.125" xlink:href="#m7c2c591da6" y="208.82886"/>
    </g>
   </g>
   <g id="PathCollection_2">
    <g clip-path="url(#pf55aa59af4)">
     <use style="fill:#ffffff;stroke:#404040;stroke-width:0.5;" x="807.295" xlink:href="#m7c2c591da6" y="212.678424"/>
    </g>
   </g>
  </g>
  <g id="text_10">
   <!-- Violin Plot of all Continuous Variables -->
   <g style="fill:#262626;" transform="translate(416.035547 16.496719)scale(0.15 -0.15)">
    <defs>
     <path d="M 28.171875 0 
L 0.4375 71.578125 
L 10.6875 71.578125 
L 29.296875 19.578125 
Q 31.546875 13.328125 33.0625 7.859375 
Q 34.71875 13.71875 36.921875 19.578125 
L 56.25 71.578125 
L 65.921875 71.578125 
L 37.890625 0 
z
" id="ArialMT-86"/>
     <path d="M 6.640625 61.46875 
L 6.640625 71.578125 
L 15.4375 71.578125 
L 15.4375 61.46875 
z
M 6.640625 0 
L 6.640625 51.859375 
L 15.4375 51.859375 
L 15.4375 0 
z
" id="ArialMT-105"/>
     <path d="M 3.328125 25.921875 
Q 3.328125 40.328125 11.328125 47.265625 
Q 18.015625 53.03125 27.640625 53.03125 
Q 38.328125 53.03125 45.109375 46.015625 
Q 51.90625 39.015625 51.90625 26.65625 
Q 51.90625 16.65625 48.90625 10.90625 
Q 45.90625 5.171875 40.15625 2 
Q 34.421875 -1.171875 27.640625 -1.171875 
Q 16.75 -1.171875 10.03125 5.8125 
Q 3.328125 12.796875 3.328125 25.921875 
z
M 12.359375 25.921875 
Q 12.359375 15.96875 16.703125 11.015625 
Q 21.046875 6.0625 27.640625 6.0625 
Q 34.1875 6.0625 38.53125 11.03125 
Q 42.875 16.015625 42.875 26.21875 
Q 42.875 35.84375 38.5 40.796875 
Q 34.125 45.75 27.640625 45.75 
Q 21.046875 45.75 16.703125 40.8125 
Q 12.359375 35.890625 12.359375 25.921875 
z
" id="ArialMT-111"/>
     <path d="M 6.390625 0 
L 6.390625 71.578125 
L 15.1875 71.578125 
L 15.1875 0 
z
" id="ArialMT-108"/>
     <path d="M 6.59375 0 
L 6.59375 51.859375 
L 14.5 51.859375 
L 14.5 44.484375 
Q 20.21875 53.03125 31 53.03125 
Q 35.6875 53.03125 39.625 51.34375 
Q 43.5625 49.65625 45.515625 46.921875 
Q 47.46875 44.1875 48.25 40.4375 
Q 48.734375 37.984375 48.734375 31.890625 
L 48.734375 0 
L 39.9375 0 
L 39.9375 31.546875 
Q 39.9375 36.921875 38.90625 39.578125 
Q 37.890625 42.234375 35.28125 43.8125 
Q 32.671875 45.40625 29.15625 45.40625 
Q 23.53125 45.40625 19.453125 41.84375 
Q 15.375 38.28125 15.375 28.328125 
L 15.375 0 
z
" id="ArialMT-110"/>
     <path id="ArialMT-32"/>
     <path d="M 7.71875 0 
L 7.71875 71.578125 
L 34.71875 71.578125 
Q 41.84375 71.578125 45.609375 70.90625 
Q 50.875 70.015625 54.4375 67.546875 
Q 58.015625 65.09375 60.1875 60.640625 
Q 62.359375 56.203125 62.359375 50.875 
Q 62.359375 41.75 56.546875 35.421875 
Q 50.734375 29.109375 35.546875 29.109375 
L 17.1875 29.109375 
L 17.1875 0 
z
M 17.1875 37.546875 
L 35.6875 37.546875 
Q 44.875 37.546875 48.734375 40.96875 
Q 52.59375 44.390625 52.59375 50.59375 
Q 52.59375 55.078125 50.3125 58.265625 
Q 48.046875 61.46875 44.34375 62.5 
Q 41.9375 63.140625 35.5 63.140625 
L 17.1875 63.140625 
z
" id="ArialMT-80"/>
     <path d="M 25.78125 7.859375 
L 27.046875 0.09375 
Q 23.34375 -0.6875 20.40625 -0.6875 
Q 15.625 -0.6875 12.984375 0.828125 
Q 10.359375 2.34375 9.28125 4.8125 
Q 8.203125 7.28125 8.203125 15.1875 
L 8.203125 45.015625 
L 1.765625 45.015625 
L 1.765625 51.859375 
L 8.203125 51.859375 
L 8.203125 64.703125 
L 16.9375 69.96875 
L 16.9375 51.859375 
L 25.78125 51.859375 
L 25.78125 45.015625 
L 16.9375 45.015625 
L 16.9375 14.703125 
Q 16.9375 10.9375 17.40625 9.859375 
Q 17.875 8.796875 18.921875 8.15625 
Q 19.96875 7.515625 21.921875 7.515625 
Q 23.390625 7.515625 25.78125 7.859375 
z
" id="ArialMT-116"/>
     <path d="M 8.6875 0 
L 8.6875 45.015625 
L 0.921875 45.015625 
L 0.921875 51.859375 
L 8.6875 51.859375 
L 8.6875 57.375 
Q 8.6875 62.59375 9.625 65.140625 
Q 10.890625 68.5625 14.078125 70.671875 
Q 17.28125 72.796875 23.046875 72.796875 
Q 26.765625 72.796875 31.25 71.921875 
L 29.9375 64.265625 
Q 27.203125 64.75 24.75 64.75 
Q 20.75 64.75 19.09375 63.03125 
Q 17.4375 61.328125 17.4375 56.640625 
L 17.4375 51.859375 
L 27.546875 51.859375 
L 27.546875 45.015625 
L 17.4375 45.015625 
L 17.4375 0 
z
" id="ArialMT-102"/>
     <path d="M 58.796875 25.09375 
L 68.265625 22.703125 
Q 65.28125 11.03125 57.546875 4.90625 
Q 49.8125 -1.21875 38.625 -1.21875 
Q 27.046875 -1.21875 19.796875 3.484375 
Q 12.546875 8.203125 8.765625 17.140625 
Q 4.984375 26.078125 4.984375 36.328125 
Q 4.984375 47.515625 9.25 55.828125 
Q 13.53125 64.15625 21.40625 68.46875 
Q 29.296875 72.796875 38.765625 72.796875 
Q 49.515625 72.796875 56.828125 67.328125 
Q 64.15625 61.859375 67.046875 51.953125 
L 57.71875 49.75 
Q 55.21875 57.5625 50.484375 61.125 
Q 45.75 64.703125 38.578125 64.703125 
Q 30.328125 64.703125 24.78125 60.734375 
Q 19.234375 56.78125 16.984375 50.109375 
Q 14.75 43.453125 14.75 36.375 
Q 14.75 27.25 17.40625 20.4375 
Q 20.0625 13.625 25.671875 10.25 
Q 31.296875 6.890625 37.84375 6.890625 
Q 45.796875 6.890625 51.3125 11.46875 
Q 56.84375 16.0625 58.796875 25.09375 
z
" id="ArialMT-67"/>
     <path d="M 40.578125 0 
L 40.578125 7.625 
Q 34.515625 -1.171875 24.125 -1.171875 
Q 19.53125 -1.171875 15.546875 0.578125 
Q 11.578125 2.34375 9.640625 5 
Q 7.71875 7.671875 6.9375 11.53125 
Q 6.390625 14.109375 6.390625 19.734375 
L 6.390625 51.859375 
L 15.1875 51.859375 
L 15.1875 23.09375 
Q 15.1875 16.21875 15.71875 13.8125 
Q 16.546875 10.359375 19.234375 8.375 
Q 21.921875 6.390625 25.875 6.390625 
Q 29.828125 6.390625 33.296875 8.421875 
Q 36.765625 10.453125 38.203125 13.9375 
Q 39.65625 17.4375 39.65625 24.078125 
L 39.65625 51.859375 
L 48.4375 51.859375 
L 48.4375 0 
z
" id="ArialMT-117"/>
     <path d="M 3.078125 15.484375 
L 11.765625 16.84375 
Q 12.5 11.625 15.84375 8.84375 
Q 19.1875 6.0625 25.203125 6.0625 
Q 31.25 6.0625 34.171875 8.515625 
Q 37.109375 10.984375 37.109375 14.3125 
Q 37.109375 17.28125 34.515625 19 
Q 32.71875 20.171875 25.53125 21.96875 
Q 15.875 24.421875 12.140625 26.203125 
Q 8.40625 27.984375 6.46875 31.125 
Q 4.546875 34.28125 4.546875 38.09375 
Q 4.546875 41.546875 6.125 44.5 
Q 7.71875 47.46875 10.453125 49.421875 
Q 12.5 50.921875 16.03125 51.96875 
Q 19.578125 53.03125 23.640625 53.03125 
Q 29.734375 53.03125 34.34375 51.265625 
Q 38.96875 49.515625 41.15625 46.5 
Q 43.359375 43.5 44.1875 38.484375 
L 35.59375 37.3125 
Q 35.015625 41.3125 32.203125 43.546875 
Q 29.390625 45.796875 24.265625 45.796875 
Q 18.21875 45.796875 15.625 43.796875 
Q 13.03125 41.796875 13.03125 39.109375 
Q 13.03125 37.40625 14.109375 36.03125 
Q 15.1875 34.625 17.484375 33.6875 
Q 18.796875 33.203125 25.25 31.453125 
Q 34.578125 28.953125 38.25 27.359375 
Q 41.9375 25.78125 44.03125 22.75 
Q 46.140625 19.734375 46.140625 15.234375 
Q 46.140625 10.84375 43.578125 6.953125 
Q 41.015625 3.078125 36.171875 0.953125 
Q 31.34375 -1.171875 25.25 -1.171875 
Q 15.140625 -1.171875 9.84375 3.03125 
Q 4.546875 7.234375 3.078125 15.484375 
z
" id="ArialMT-115"/>
     <path d="M 14.703125 0 
L 6.546875 0 
L 6.546875 71.578125 
L 15.328125 71.578125 
L 15.328125 46.046875 
Q 20.90625 53.03125 29.546875 53.03125 
Q 34.328125 53.03125 38.59375 51.09375 
Q 42.875 49.171875 45.625 45.671875 
Q 48.390625 42.1875 49.953125 37.25 
Q 51.515625 32.328125 51.515625 26.703125 
Q 51.515625 13.375 44.921875 6.09375 
Q 38.328125 -1.171875 29.109375 -1.171875 
Q 19.921875 -1.171875 14.703125 6.5 
z
M 14.59375 26.3125 
Q 14.59375 17 17.140625 12.84375 
Q 21.296875 6.0625 28.375 6.0625 
Q 34.125 6.0625 38.328125 11.0625 
Q 42.53125 16.0625 42.53125 25.984375 
Q 42.53125 36.140625 38.5 40.96875 
Q 34.46875 45.796875 28.765625 45.796875 
Q 23 45.796875 18.796875 40.796875 
Q 14.59375 35.796875 14.59375 26.3125 
z
" id="ArialMT-98"/>
    </defs>
    <use xlink:href="#ArialMT-86"/>
    <use x="64.949219" xlink:href="#ArialMT-105"/>
    <use x="87.166016" xlink:href="#ArialMT-111"/>
    <use x="142.78125" xlink:href="#ArialMT-108"/>
    <use x="164.998047" xlink:href="#ArialMT-105"/>
    <use x="187.214844" xlink:href="#ArialMT-110"/>
    <use x="242.830078" xlink:href="#ArialMT-32"/>
    <use x="270.613281" xlink:href="#ArialMT-80"/>
    <use x="337.3125" xlink:href="#ArialMT-108"/>
    <use x="359.529297" xlink:href="#ArialMT-111"/>
    <use x="415.144531" xlink:href="#ArialMT-116"/>
    <use x="442.927734" xlink:href="#ArialMT-32"/>
    <use x="470.710938" xlink:href="#ArialMT-111"/>
    <use x="526.326172" xlink:href="#ArialMT-102"/>
    <use x="554.109375" xlink:href="#ArialMT-32"/>
    <use x="581.892578" xlink:href="#ArialMT-97"/>
    <use x="637.507812" xlink:href="#ArialMT-108"/>
    <use x="659.724609" xlink:href="#ArialMT-108"/>
    <use x="681.941406" xlink:href="#ArialMT-32"/>
    <use x="709.724609" xlink:href="#ArialMT-67"/>
    <use x="781.941406" xlink:href="#ArialMT-111"/>
    <use x="837.556641" xlink:href="#ArialMT-110"/>
    <use x="893.171875" xlink:href="#ArialMT-116"/>
    <use x="920.955078" xlink:href="#ArialMT-105"/>
    <use x="943.171875" xlink:href="#ArialMT-110"/>
    <use x="998.787109" xlink:href="#ArialMT-117"/>
    <use x="1054.402344" xlink:href="#ArialMT-111"/>
    <use x="1110.017578" xlink:href="#ArialMT-117"/>
    <use x="1165.632812" xlink:href="#ArialMT-115"/>
    <use x="1215.632812" xlink:href="#ArialMT-32"/>
    <use x="1243.416016" xlink:href="#ArialMT-86"/>
    <use x="1302.740234" xlink:href="#ArialMT-97"/>
    <use x="1358.355469" xlink:href="#ArialMT-114"/>
    <use x="1391.65625" xlink:href="#ArialMT-105"/>
    <use x="1413.873047" xlink:href="#ArialMT-97"/>
    <use x="1469.488281" xlink:href="#ArialMT-98"/>
    <use x="1525.103516" xlink:href="#ArialMT-108"/>
    <use x="1547.320312" xlink:href="#ArialMT-101"/>
    <use x="1602.935547" xlink:href="#ArialMT-115"/>
   </g>
  </g>
 </g>
 <defs>
  <clipPath id="pf55aa59af4">
   <rect height="211.88" width="1030.34" x="34.54" y="43.92"/>
  </clipPath>
 </defs>
</svg>
