<?xml version="1.0" encoding="utf-8" standalone="no"?>
<!DOCTYPE svg PUBLIC "-//W3C//DTD SVG 1.1//EN"
  "http://www.w3.org/Graphics/SVG/1.1/DTD/svg11.dtd">
<!-- Created with matplotlib (https://matplotlib.org/) -->
<svg height="288pt" version="1.1" viewBox="0 0 1080 288" width="1080pt" xmlns="http://www.w3.org/2000/svg" xmlns:xlink="http://www.w3.org/1999/xlink">
 <metadata>
  <rdf:RDF xmlns:cc="http://creativecommons.org/ns#" xmlns:dc="http://purl.org/dc/elements/1.1/" xmlns:rdf="http://www.w3.org/1999/02/22-rdf-syntax-ns#">
   <cc:Work>
    <dc:type rdf:resource="http://purl.org/dc/dcmitype/StillImage"/>
    <dc:date>2022-03-19T13:24:58.400634</dc:date>
    <dc:format>image/svg+xml</dc:format>
    <dc:creator>
     <cc:Agent>
      <dc:title>Matplotlib v3.3.3, https://matplotlib.org/</dc:title>
     </cc:Agent>
    </dc:creator>
   </cc:Work>
  </rdf:RDF>
 </metadata>
 <defs>
  <style type="text/css">*{stroke-linecap:butt;stroke-linejoin:round;}</style>
 </defs>
 <g id="figure_1">
  <g id="patch_1">
   <path d="M 0 288 
L 1080 288 
L 1080 0 
L 0 0 
z
" style="fill:#f0f0f0;"/>
  </g>
  <g id="axes_1">
   <g id="patch_2">
    <path d="M 34.54 255.8 
L 1064.88 255.8 
L 1064.88 43.92 
L 34.54 43.92 
z
" style="fill:#f0f0f0;"/>
   </g>
   <g id="matplotlib.axis_1">
    <g id="xtick_1">
     <g id="text_1">
      <!-- age -->
      <g style="fill:#262626;" transform="translate(282.949453 270.544688)scale(0.11 -0.11)">
       <defs>
        <path d="M 40.4375 6.390625 
Q 35.546875 2.25 31.03125 0.53125 
Q 26.515625 -1.171875 21.34375 -1.171875 
Q 12.796875 -1.171875 8.203125 3 
Q 3.609375 7.171875 3.609375 13.671875 
Q 3.609375 17.484375 5.34375 20.625 
Q 7.078125 23.78125 9.890625 25.6875 
Q 12.703125 27.59375 16.21875 28.5625 
Q 18.796875 29.25 24.03125 29.890625 
Q 34.671875 31.15625 39.703125 32.90625 
Q 39.75 34.71875 39.75 35.203125 
Q 39.75 40.578125 37.25 42.78125 
Q 33.890625 45.75 27.25 45.75 
Q 21.046875 45.75 18.09375 43.578125 
Q 15.140625 41.40625 13.71875 35.890625 
L 5.125 37.0625 
Q 6.296875 42.578125 8.984375 45.96875 
Q 11.671875 49.359375 16.75 51.1875 
Q 21.828125 53.03125 28.515625 53.03125 
Q 35.15625 53.03125 39.296875 51.46875 
Q 43.453125 49.90625 45.40625 47.53125 
Q 47.359375 45.171875 48.140625 41.546875 
Q 48.578125 39.3125 48.578125 33.453125 
L 48.578125 21.734375 
Q 48.578125 9.46875 49.140625 6.21875 
Q 49.703125 2.984375 51.375 0 
L 42.1875 0 
Q 40.828125 2.734375 40.4375 6.390625 
z
M 39.703125 26.03125 
Q 34.90625 24.078125 25.34375 22.703125 
Q 19.921875 21.921875 17.671875 20.9375 
Q 15.4375 19.96875 14.203125 18.09375 
Q 12.984375 16.21875 12.984375 13.921875 
Q 12.984375 10.40625 15.640625 8.0625 
Q 18.3125 5.71875 23.4375 5.71875 
Q 28.515625 5.71875 32.46875 7.9375 
Q 36.421875 10.15625 38.28125 14.015625 
Q 39.703125 17 39.703125 22.796875 
z
" id="ArialMT-97"/>
        <path d="M 4.984375 -4.296875 
L 13.53125 -5.5625 
Q 14.0625 -9.515625 16.5 -11.328125 
Q 19.78125 -13.765625 25.4375 -13.765625 
Q 31.546875 -13.765625 34.859375 -11.328125 
Q 38.1875 -8.890625 39.359375 -4.5 
Q 40.046875 -1.8125 39.984375 6.78125 
Q 34.234375 0 25.640625 0 
Q 14.9375 0 9.078125 7.71875 
Q 3.21875 15.4375 3.21875 26.21875 
Q 3.21875 33.640625 5.90625 39.90625 
Q 8.59375 46.1875 13.6875 49.609375 
Q 18.796875 53.03125 25.6875 53.03125 
Q 34.859375 53.03125 40.828125 45.609375 
L 40.828125 51.859375 
L 48.921875 51.859375 
L 48.921875 7.03125 
Q 48.921875 -5.078125 46.453125 -10.125 
Q 44 -15.1875 38.640625 -18.109375 
Q 33.296875 -21.046875 25.484375 -21.046875 
Q 16.21875 -21.046875 10.5 -16.875 
Q 4.78125 -12.703125 4.984375 -4.296875 
z
M 12.25 26.859375 
Q 12.25 16.65625 16.296875 11.96875 
Q 20.359375 7.28125 26.46875 7.28125 
Q 32.515625 7.28125 36.609375 11.9375 
Q 40.71875 16.609375 40.71875 26.5625 
Q 40.71875 36.078125 36.5 40.90625 
Q 32.28125 45.75 26.3125 45.75 
Q 20.453125 45.75 16.34375 40.984375 
Q 12.25 36.234375 12.25 26.859375 
z
" id="ArialMT-103"/>
        <path d="M 42.09375 16.703125 
L 51.171875 15.578125 
Q 49.03125 7.625 43.21875 3.21875 
Q 37.40625 -1.171875 28.375 -1.171875 
Q 17 -1.171875 10.328125 5.828125 
Q 3.65625 12.84375 3.65625 25.484375 
Q 3.65625 38.578125 10.390625 45.796875 
Q 17.140625 53.03125 27.875 53.03125 
Q 38.28125 53.03125 44.875 45.953125 
Q 51.46875 38.875 51.46875 26.03125 
Q 51.46875 25.25 51.421875 23.6875 
L 12.75 23.6875 
Q 13.234375 15.140625 17.578125 10.59375 
Q 21.921875 6.0625 28.421875 6.0625 
Q 33.25 6.0625 36.671875 8.59375 
Q 40.09375 11.140625 42.09375 16.703125 
z
M 13.234375 30.90625 
L 42.1875 30.90625 
Q 41.609375 37.453125 38.875 40.71875 
Q 34.671875 45.796875 27.984375 45.796875 
Q 21.921875 45.796875 17.796875 41.75 
Q 13.671875 37.703125 13.234375 30.90625 
z
" id="ArialMT-101"/>
       </defs>
       <use xlink:href="#ArialMT-97"/>
       <use x="55.615234" xlink:href="#ArialMT-103"/>
       <use x="111.230469" xlink:href="#ArialMT-101"/>
      </g>
     </g>
    </g>
    <g id="xtick_2">
     <g id="text_2">
      <!-- fare -->
      <g style="fill:#262626;" transform="translate(797.818672 270.673594)scale(0.11 -0.11)">
       <defs>
        <path d="M 8.6875 0 
L 8.6875 45.015625 
L 0.921875 45.015625 
L 0.921875 51.859375 
L 8.6875 51.859375 
L 8.6875 57.375 
Q 8.6875 62.59375 9.625 65.140625 
Q 10.890625 68.5625 14.078125 70.671875 
Q 17.28125 72.796875 23.046875 72.796875 
Q 26.765625 72.796875 31.25 71.921875 
L 29.9375 64.265625 
Q 27.203125 64.75 24.75 64.75 
Q 20.75 64.75 19.09375 63.03125 
Q 17.4375 61.328125 17.4375 56.640625 
L 17.4375 51.859375 
L 27.546875 51.859375 
L 27.546875 45.015625 
L 17.4375 45.015625 
L 17.4375 0 
z
" id="ArialMT-102"/>
        <path d="M 6.5 0 
L 6.5 51.859375 
L 14.40625 51.859375 
L 14.40625 44 
Q 17.4375 49.515625 20 51.265625 
Q 22.5625 53.03125 25.640625 53.03125 
Q 30.078125 53.03125 34.671875 50.203125 
L 31.640625 42.046875 
Q 28.421875 43.953125 25.203125 43.953125 
Q 22.3125 43.953125 20.015625 42.21875 
Q 17.71875 40.484375 16.75 37.40625 
Q 15.28125 32.71875 15.28125 27.15625 
L 15.28125 0 
z
" id="ArialMT-114"/>
       </defs>
       <use xlink:href="#ArialMT-102"/>
       <use x="27.783203" xlink:href="#ArialMT-97"/>
       <use x="83.398438" xlink:href="#ArialMT-114"/>
       <use x="116.699219" xlink:href="#ArialMT-101"/>
      </g>
     </g>
    </g>
   </g>
   <g id="matplotlib.axis_2">
    <g id="ytick_1">
     <g id="line2d_1">
      <path clip-path="url(#p53aae06b3a)" d="M 34.54 237.401489 
L 1064.88 237.401489 
" style="fill:none;stroke:#cbcbcb;"/>
     </g>
     <g id="text_3">
      <!-- −2 -->
      <g style="fill:#262626;" transform="translate(14.998281 241.338286)scale(0.11 -0.11)">
       <defs>
        <path d="M 52.828125 31.203125 
L 5.5625 31.203125 
L 5.5625 39.40625 
L 52.828125 39.40625 
z
" id="ArialMT-8722"/>
        <path d="M 50.34375 8.453125 
L 50.34375 0 
L 3.03125 0 
Q 2.9375 3.171875 4.046875 6.109375 
Q 5.859375 10.9375 9.828125 15.625 
Q 13.8125 20.3125 21.34375 26.46875 
Q 33.015625 36.03125 37.109375 41.625 
Q 41.21875 47.21875 41.21875 52.203125 
Q 41.21875 57.421875 37.46875 61 
Q 33.734375 64.59375 27.734375 64.59375 
Q 21.390625 64.59375 17.578125 60.78125 
Q 13.765625 56.984375 13.71875 50.25 
L 4.6875 51.171875 
Q 5.609375 61.28125 11.65625 66.578125 
Q 17.71875 71.875 27.9375 71.875 
Q 38.234375 71.875 44.234375 66.15625 
Q 50.25 60.453125 50.25 52 
Q 50.25 47.703125 48.484375 43.546875 
Q 46.734375 39.40625 42.65625 34.8125 
Q 38.578125 30.21875 29.109375 22.21875 
Q 21.1875 15.578125 18.9375 13.203125 
Q 16.703125 10.84375 15.234375 8.453125 
z
" id="ArialMT-50"/>
       </defs>
       <use xlink:href="#ArialMT-8722"/>
       <use x="58.398438" xlink:href="#ArialMT-50"/>
      </g>
     </g>
    </g>
    <g id="ytick_2">
     <g id="line2d_2">
      <path clip-path="url(#p53aae06b3a)" d="M 34.54 206.05776 
L 1064.88 206.05776 
" style="fill:none;stroke:#cbcbcb;"/>
     </g>
     <g id="text_4">
      <!-- 0 -->
      <g style="fill:#262626;" transform="translate(21.422969 209.994557)scale(0.11 -0.11)">
       <defs>
        <path d="M 4.15625 35.296875 
Q 4.15625 48 6.765625 55.734375 
Q 9.375 63.484375 14.515625 67.671875 
Q 19.671875 71.875 27.484375 71.875 
Q 33.25 71.875 37.59375 69.546875 
Q 41.9375 67.234375 44.765625 62.859375 
Q 47.609375 58.5 49.21875 52.21875 
Q 50.828125 45.953125 50.828125 35.296875 
Q 50.828125 22.703125 48.234375 14.96875 
Q 45.65625 7.234375 40.5 3 
Q 35.359375 -1.21875 27.484375 -1.21875 
Q 17.140625 -1.21875 11.234375 6.203125 
Q 4.15625 15.140625 4.15625 35.296875 
z
M 13.1875 35.296875 
Q 13.1875 17.671875 17.3125 11.828125 
Q 21.4375 6 27.484375 6 
Q 33.546875 6 37.671875 11.859375 
Q 41.796875 17.71875 41.796875 35.296875 
Q 41.796875 52.984375 37.671875 58.78125 
Q 33.546875 64.59375 27.390625 64.59375 
Q 21.34375 64.59375 17.71875 59.46875 
Q 13.1875 52.9375 13.1875 35.296875 
z
" id="ArialMT-48"/>
       </defs>
       <use xlink:href="#ArialMT-48"/>
      </g>
     </g>
    </g>
    <g id="ytick_3">
     <g id="line2d_3">
      <path clip-path="url(#p53aae06b3a)" d="M 34.54 174.714031 
L 1064.88 174.714031 
" style="fill:none;stroke:#cbcbcb;"/>
     </g>
     <g id="text_5">
      <!-- 2 -->
      <g style="fill:#262626;" transform="translate(21.422969 178.650828)scale(0.11 -0.11)">
       <use xlink:href="#ArialMT-50"/>
      </g>
     </g>
    </g>
    <g id="ytick_4">
     <g id="line2d_4">
      <path clip-path="url(#p53aae06b3a)" d="M 34.54 143.370302 
L 1064.88 143.370302 
" style="fill:none;stroke:#cbcbcb;"/>
     </g>
     <g id="text_6">
      <!-- 4 -->
      <g style="fill:#262626;" transform="translate(21.422969 147.307099)scale(0.11 -0.11)">
       <defs>
        <path d="M 32.328125 0 
L 32.328125 17.140625 
L 1.265625 17.140625 
L 1.265625 25.203125 
L 33.9375 71.578125 
L 41.109375 71.578125 
L 41.109375 25.203125 
L 50.78125 25.203125 
L 50.78125 17.140625 
L 41.109375 17.140625 
L 41.109375 0 
z
M 32.328125 25.203125 
L 32.328125 57.46875 
L 9.90625 25.203125 
z
" id="ArialMT-52"/>
       </defs>
       <use xlink:href="#ArialMT-52"/>
      </g>
     </g>
    </g>
    <g id="ytick_5">
     <g id="line2d_5">
      <path clip-path="url(#p53aae06b3a)" d="M 34.54 112.026573 
L 1064.88 112.026573 
" style="fill:none;stroke:#cbcbcb;"/>
     </g>
     <g id="text_7">
      <!-- 6 -->
      <g style="fill:#262626;" transform="translate(21.422969 115.96337)scale(0.11 -0.11)">
       <defs>
        <path d="M 49.75 54.046875 
L 41.015625 53.375 
Q 39.84375 58.546875 37.703125 60.890625 
Q 34.125 64.65625 28.90625 64.65625 
Q 24.703125 64.65625 21.53125 62.3125 
Q 17.390625 59.28125 14.984375 53.46875 
Q 12.59375 47.65625 12.5 36.921875 
Q 15.671875 41.75 20.265625 44.09375 
Q 24.859375 46.4375 29.890625 46.4375 
Q 38.671875 46.4375 44.84375 39.96875 
Q 51.03125 33.5 51.03125 23.25 
Q 51.03125 16.5 48.125 10.71875 
Q 45.21875 4.9375 40.140625 1.859375 
Q 35.0625 -1.21875 28.609375 -1.21875 
Q 17.625 -1.21875 10.6875 6.859375 
Q 3.765625 14.9375 3.765625 33.5 
Q 3.765625 54.25 11.421875 63.671875 
Q 18.109375 71.875 29.4375 71.875 
Q 37.890625 71.875 43.28125 67.140625 
Q 48.6875 62.40625 49.75 54.046875 
z
M 13.875 23.1875 
Q 13.875 18.65625 15.796875 14.5 
Q 17.71875 10.359375 21.1875 8.171875 
Q 24.65625 6 28.46875 6 
Q 34.03125 6 38.03125 10.484375 
Q 42.046875 14.984375 42.046875 22.703125 
Q 42.046875 30.125 38.078125 34.390625 
Q 34.125 38.671875 28.125 38.671875 
Q 22.171875 38.671875 18.015625 34.390625 
Q 13.875 30.125 13.875 23.1875 
z
" id="ArialMT-54"/>
       </defs>
       <use xlink:href="#ArialMT-54"/>
      </g>
     </g>
    </g>
    <g id="ytick_6">
     <g id="line2d_6">
      <path clip-path="url(#p53aae06b3a)" d="M 34.54 80.682844 
L 1064.88 80.682844 
" style="fill:none;stroke:#cbcbcb;"/>
     </g>
     <g id="text_8">
      <!-- 8 -->
      <g style="fill:#262626;" transform="translate(21.422969 84.619641)scale(0.11 -0.11)">
       <defs>
        <path d="M 17.671875 38.8125 
Q 12.203125 40.828125 9.5625 44.53125 
Q 6.9375 48.25 6.9375 53.421875 
Q 6.9375 61.234375 12.546875 66.546875 
Q 18.171875 71.875 27.484375 71.875 
Q 36.859375 71.875 42.578125 66.421875 
Q 48.296875 60.984375 48.296875 53.171875 
Q 48.296875 48.1875 45.671875 44.5 
Q 43.0625 40.828125 37.75 38.8125 
Q 44.34375 36.671875 47.78125 31.875 
Q 51.21875 27.09375 51.21875 20.453125 
Q 51.21875 11.28125 44.71875 5.03125 
Q 38.234375 -1.21875 27.640625 -1.21875 
Q 17.046875 -1.21875 10.546875 5.046875 
Q 4.046875 11.328125 4.046875 20.703125 
Q 4.046875 27.6875 7.59375 32.390625 
Q 11.140625 37.109375 17.671875 38.8125 
z
M 15.921875 53.71875 
Q 15.921875 48.640625 19.1875 45.40625 
Q 22.46875 42.1875 27.6875 42.1875 
Q 32.765625 42.1875 36.015625 45.375 
Q 39.265625 48.578125 39.265625 53.21875 
Q 39.265625 58.0625 35.90625 61.359375 
Q 32.5625 64.65625 27.59375 64.65625 
Q 22.5625 64.65625 19.234375 61.421875 
Q 15.921875 58.203125 15.921875 53.71875 
z
M 13.09375 20.65625 
Q 13.09375 16.890625 14.875 13.375 
Q 16.65625 9.859375 20.171875 7.921875 
Q 23.6875 6 27.734375 6 
Q 34.03125 6 38.125 10.046875 
Q 42.234375 14.109375 42.234375 20.359375 
Q 42.234375 26.703125 38.015625 30.859375 
Q 33.796875 35.015625 27.4375 35.015625 
Q 21.234375 35.015625 17.15625 30.90625 
Q 13.09375 26.8125 13.09375 20.65625 
z
" id="ArialMT-56"/>
       </defs>
       <use xlink:href="#ArialMT-56"/>
      </g>
     </g>
    </g>
    <g id="ytick_7">
     <g id="line2d_7">
      <path clip-path="url(#p53aae06b3a)" d="M 34.54 49.339115 
L 1064.88 49.339115 
" style="fill:none;stroke:#cbcbcb;"/>
     </g>
     <g id="text_9">
      <!-- 10 -->
      <g style="fill:#262626;" transform="translate(15.305938 53.275912)scale(0.11 -0.11)">
       <defs>
        <path d="M 37.25 0 
L 28.46875 0 
L 28.46875 56 
Q 25.296875 52.984375 20.140625 49.953125 
Q 14.984375 46.921875 10.890625 45.40625 
L 10.890625 53.90625 
Q 18.265625 57.375 23.78125 62.296875 
Q 29.296875 67.234375 31.59375 71.875 
L 37.25 71.875 
z
" id="ArialMT-49"/>
       </defs>
       <use xlink:href="#ArialMT-49"/>
       <use x="55.615234" xlink:href="#ArialMT-48"/>
      </g>
     </g>
    </g>
   </g>
   <g id="PolyCollection_1">
    <defs>
     <path d="M 294.012521 -41.830909 
L 290.237479 -41.830909 
L 288.754741 -42.865338 
L 286.483218 -43.899768 
L 283.261974 -44.934197 
L 279.042288 -45.968626 
L 273.951452 -47.003055 
L 268.320106 -48.037484 
L 262.6486 -49.071914 
L 257.509446 -50.106343 
L 253.411885 -51.140772 
L 250.675353 -52.175201 
L 249.357758 -53.209631 
L 249.26042 -54.24406 
L 249.996702 -55.278489 
L 251.084935 -56.312918 
L 252.02238 -57.347347 
L 252.316197 -58.381777 
L 251.477456 -59.416206 
L 249.007877 -60.450635 
L 244.41395 -61.485064 
L 237.267667 -62.519494 
L 227.306029 -63.553923 
L 214.536522 -64.588352 
L 199.305273 -65.622781 
L 182.294169 -66.65721 
L 164.438813 -67.69164 
L 146.789019 -68.726069 
L 130.353079 -69.760498 
L 115.967494 -70.794927 
L 104.217125 -71.829357 
L 95.408788 -72.863786 
L 89.58692 -73.898215 
L 86.578223 -74.932644 
L 86.057 -75.967073 
L 87.624383 -77.001503 
L 90.888354 -78.035932 
L 95.523596 -79.070361 
L 101.291387 -80.10479 
L 108.015099 -81.13922 
L 115.529086 -82.173649 
L 123.632902 -83.208078 
L 132.078007 -84.242507 
L 140.592819 -85.276937 
L 148.928834 -86.311366 
L 156.900796 -87.345795 
L 164.401949 -88.380224 
L 171.392646 -89.414653 
L 177.874105 -90.449083 
L 183.861873 -91.483512 
L 189.368429 -92.517941 
L 194.398052 -93.55237 
L 198.953487 -94.5868 
L 203.051736 -95.621229 
L 206.74321 -96.655658 
L 210.125093 -97.690087 
L 213.339544 -98.724516 
L 216.552327 -99.758946 
L 219.91614 -100.793375 
L 223.530697 -101.827804 
L 227.414511 -102.862233 
L 231.49958 -103.896663 
L 235.651463 -104.931092 
L 239.707167 -105.965521 
L 243.516497 -106.99995 
L 246.972717 -108.034379 
L 250.025326 -109.068809 
L 252.677348 -110.103238 
L 254.975612 -111.137667 
L 257.001649 -112.172096 
L 258.864686 -113.206526 
L 260.692299 -114.240955 
L 262.613413 -115.275384 
L 264.732989 -116.309813 
L 267.104606 -117.344242 
L 269.711374 -118.378672 
L 272.464539 -119.413101 
L 275.223169 -120.44753 
L 277.830085 -121.481959 
L 280.152408 -122.516389 
L 282.112772 -123.550818 
L 283.700791 -124.585247 
L 284.962527 -125.619676 
L 285.974665 -126.654105 
L 286.815469 -127.688535 
L 287.543886 -128.722964 
L 288.192341 -129.757393 
L 288.771664 -130.791822 
L 289.281988 -131.826252 
L 289.723026 -132.860681 
L 290.099738 -133.89511 
L 290.422745 -134.929539 
L 290.705197 -135.963969 
L 290.958593 -136.998398 
L 291.189684 -138.032827 
L 291.399635 -139.067256 
L 291.585451 -140.101685 
L 291.742738 -141.136115 
L 291.868461 -142.170544 
L 291.962606 -143.204973 
L 292.028342 -144.239402 
L 292.221658 -144.239402 
L 292.221658 -144.239402 
L 292.287394 -143.204973 
L 292.381539 -142.170544 
L 292.507262 -141.136115 
L 292.664549 -140.101685 
L 292.850365 -139.067256 
L 293.060316 -138.032827 
L 293.291407 -136.998398 
L 293.544803 -135.963969 
L 293.827255 -134.929539 
L 294.150262 -133.89511 
L 294.526974 -132.860681 
L 294.968012 -131.826252 
L 295.478336 -130.791822 
L 296.057659 -129.757393 
L 296.706114 -128.722964 
L 297.434531 -127.688535 
L 298.275335 -126.654105 
L 299.287473 -125.619676 
L 300.549209 -124.585247 
L 302.137228 -123.550818 
L 304.097592 -122.516389 
L 306.419915 -121.481959 
L 309.026831 -120.44753 
L 311.785461 -119.413101 
L 314.538626 -118.378672 
L 317.145394 -117.344242 
L 319.517011 -116.309813 
L 321.636587 -115.275384 
L 323.557701 -114.240955 
L 325.385314 -113.206526 
L 327.248351 -112.172096 
L 329.274388 -111.137667 
L 331.572652 -110.103238 
L 334.224674 -109.068809 
L 337.277283 -108.034379 
L 340.733503 -106.99995 
L 344.542833 -105.965521 
L 348.598537 -104.931092 
L 352.75042 -103.896663 
L 356.835489 -102.862233 
L 360.719303 -101.827804 
L 364.33386 -100.793375 
L 367.697673 -99.758946 
L 370.910456 -98.724516 
L 374.124907 -97.690087 
L 377.50679 -96.655658 
L 381.198264 -95.621229 
L 385.296513 -94.5868 
L 389.851948 -93.55237 
L 394.881571 -92.517941 
L 400.388127 -91.483512 
L 406.375895 -90.449083 
L 412.857354 -89.414653 
L 419.848051 -88.380224 
L 427.349204 -87.345795 
L 435.321166 -86.311366 
L 443.657181 -85.276937 
L 452.171993 -84.242507 
L 460.617098 -83.208078 
L 468.720914 -82.173649 
L 476.234901 -81.13922 
L 482.958613 -80.10479 
L 488.726404 -79.070361 
L 493.361646 -78.035932 
L 496.625617 -77.001503 
L 498.193 -75.967073 
L 497.671777 -74.932644 
L 494.66308 -73.898215 
L 488.841212 -72.863786 
L 480.032875 -71.829357 
L 468.282506 -70.794927 
L 453.896921 -69.760498 
L 437.460981 -68.726069 
L 419.811187 -67.69164 
L 401.955831 -66.65721 
L 384.944727 -65.622781 
L 369.713478 -64.588352 
L 356.943971 -63.553923 
L 346.982333 -62.519494 
L 339.83605 -61.485064 
L 335.242123 -60.450635 
L 332.772544 -59.416206 
L 331.933803 -58.381777 
L 332.22762 -57.347347 
L 333.165065 -56.312918 
L 334.253298 -55.278489 
L 334.98958 -54.24406 
L 334.892242 -53.209631 
L 333.574647 -52.175201 
L 330.838115 -51.140772 
L 326.740554 -50.106343 
L 321.6014 -49.071914 
L 315.929894 -48.037484 
L 310.298548 -47.003055 
L 305.207712 -45.968626 
L 300.988026 -44.934197 
L 297.766782 -43.899768 
L 295.495259 -42.865338 
L 294.012521 -41.830909 
z
" id="mda3436c493" style="stroke:#404040;stroke-width:3;"/>
    </defs>
    <g clip-path="url(#p53aae06b3a)">
     <use style="fill:#1b86ba;stroke:#404040;stroke-width:3;" x="0" xlink:href="#mda3436c493" y="288"/>
    </g>
   </g>
   <g id="PolyCollection_2">
    <defs>
     <path d="M 812.091921 -64.399242 
L 802.498079 -64.399242 
L 792.850502 -66.116918 
L 771.517365 -67.834593 
L 734.293283 -69.552268 
L 684.1606 -71.269943 
L 634.48268 -72.987619 
L 603.276205 -74.705294 
L 601.227 -76.422969 
L 624.977962 -78.140644 
L 661.89205 -79.85832 
L 699.497871 -81.575995 
L 730.47896 -83.29367 
L 752.380364 -85.011345 
L 765.893983 -86.729021 
L 773.376733 -88.446696 
L 777.401489 -90.164371 
L 779.809645 -91.882046 
L 781.756398 -93.599721 
L 784.112393 -95.317397 
L 787.399416 -97.035072 
L 791.440183 -98.752747 
L 795.428456 -100.470422 
L 798.535302 -102.188098 
L 800.467816 -103.905773 
L 801.478661 -105.623448 
L 801.956143 -107.341123 
L 802.11261 -109.058799 
L 802.032551 -110.776474 
L 801.851981 -112.494149 
L 801.774779 -114.211824 
L 801.959538 -115.9295 
L 802.459372 -117.647175 
L 803.237197 -119.36485 
L 804.185181 -121.082525 
L 805.147083 -122.800201 
L 805.964031 -124.517876 
L 806.516178 -126.235551 
L 806.729183 -127.953226 
L 806.559521 -129.670901 
L 806.006716 -131.388577 
L 805.17068 -133.106252 
L 804.287025 -134.823927 
L 803.654123 -136.541602 
L 803.478143 -138.259278 
L 803.758328 -139.976953 
L 804.286831 -141.694628 
L 804.7472 -143.412303 
L 804.867082 -145.129979 
L 804.570187 -146.847654 
L 804.051307 -148.565329 
L 803.696782 -150.283004 
L 803.842234 -152.00068 
L 804.52455 -153.718355 
L 805.464988 -155.43603 
L 806.30761 -157.153705 
L 806.861646 -158.87138 
L 807.140649 -160.589056 
L 807.250442 -162.306731 
L 807.284583 -164.024406 
L 807.293028 -165.742081 
L 807.294698 -167.459757 
L 807.294963 -169.177432 
L 807.294996 -170.895107 
L 807.295 -172.612782 
L 807.295 -174.330458 
L 807.295 -176.048133 
L 807.295 -177.765808 
L 807.295 -179.483483 
L 807.295 -181.201159 
L 807.295 -182.918834 
L 807.295 -184.636509 
L 807.295 -186.354184 
L 807.295 -188.07186 
L 807.295 -189.789535 
L 807.295 -191.50721 
L 807.295 -193.224885 
L 807.295 -194.94256 
L 807.295 -196.660236 
L 807.295 -198.377911 
L 807.295 -200.095586 
L 807.295 -201.813261 
L 807.295 -203.530937 
L 807.295 -205.248612 
L 807.294999 -206.966287 
L 807.294994 -208.683962 
L 807.29495 -210.401638 
L 807.29465 -212.119313 
L 807.293026 -213.836988 
L 807.286004 -215.554663 
L 807.261827 -217.272339 
L 807.196043 -218.990014 
L 807.056192 -220.707689 
L 806.828781 -222.425364 
L 806.558672 -224.143039 
L 806.354208 -225.860715 
L 806.322574 -227.57839 
L 806.48187 -229.296065 
L 806.744948 -231.01374 
L 806.993985 -232.731416 
L 807.161736 -234.449091 
L 807.428264 -234.449091 
L 807.428264 -234.449091 
L 807.596015 -232.731416 
L 807.845052 -231.01374 
L 808.10813 -229.296065 
L 808.267426 -227.57839 
L 808.235792 -225.860715 
L 808.031328 -224.143039 
L 807.761219 -222.425364 
L 807.533808 -220.707689 
L 807.393957 -218.990014 
L 807.328173 -217.272339 
L 807.303996 -215.554663 
L 807.296974 -213.836988 
L 807.29535 -212.119313 
L 807.29505 -210.401638 
L 807.295006 -208.683962 
L 807.295001 -206.966287 
L 807.295 -205.248612 
L 807.295 -203.530937 
L 807.295 -201.813261 
L 807.295 -200.095586 
L 807.295 -198.377911 
L 807.295 -196.660236 
L 807.295 -194.94256 
L 807.295 -193.224885 
L 807.295 -191.50721 
L 807.295 -189.789535 
L 807.295 -188.07186 
L 807.295 -186.354184 
L 807.295 -184.636509 
L 807.295 -182.918834 
L 807.295 -181.201159 
L 807.295 -179.483483 
L 807.295 -177.765808 
L 807.295 -176.048133 
L 807.295 -174.330458 
L 807.295 -172.612782 
L 807.295004 -170.895107 
L 807.295037 -169.177432 
L 807.295302 -167.459757 
L 807.296972 -165.742081 
L 807.305417 -164.024406 
L 807.339558 -162.306731 
L 807.449351 -160.589056 
L 807.728354 -158.87138 
L 808.28239 -157.153705 
L 809.125012 -155.43603 
L 810.06545 -153.718355 
L 810.747766 -152.00068 
L 810.893218 -150.283004 
L 810.538693 -148.565329 
L 810.019813 -146.847654 
L 809.722918 -145.129979 
L 809.8428 -143.412303 
L 810.303169 -141.694628 
L 810.831672 -139.976953 
L 811.111857 -138.259278 
L 810.935877 -136.541602 
L 810.302975 -134.823927 
L 809.41932 -133.106252 
L 808.583284 -131.388577 
L 808.030479 -129.670901 
L 807.860817 -127.953226 
L 808.073822 -126.235551 
L 808.625969 -124.517876 
L 809.442917 -122.800201 
L 810.404819 -121.082525 
L 811.352803 -119.36485 
L 812.130628 -117.647175 
L 812.630462 -115.9295 
L 812.815221 -114.211824 
L 812.738019 -112.494149 
L 812.557449 -110.776474 
L 812.47739 -109.058799 
L 812.633857 -107.341123 
L 813.111339 -105.623448 
L 814.122184 -103.905773 
L 816.054698 -102.188098 
L 819.161544 -100.470422 
L 823.149817 -98.752747 
L 827.190584 -97.035072 
L 830.477607 -95.317397 
L 832.833602 -93.599721 
L 834.780355 -91.882046 
L 837.188511 -90.164371 
L 841.213267 -88.446696 
L 848.696017 -86.729021 
L 862.209636 -85.011345 
L 884.11104 -83.29367 
L 915.092129 -81.575995 
L 952.69795 -79.85832 
L 989.612038 -78.140644 
L 1013.363 -76.422969 
L 1011.313795 -74.705294 
L 980.10732 -72.987619 
L 930.4294 -71.269943 
L 880.296717 -69.552268 
L 843.072635 -67.834593 
L 821.739498 -66.116918 
L 812.091921 -64.399242 
z
" id="mec360581a0" style="stroke:#404040;stroke-width:3;"/>
    </defs>
    <g clip-path="url(#p53aae06b3a)">
     <use style="fill:#e36149;stroke:#404040;stroke-width:3;" x="0" xlink:href="#mec360581a0" y="288"/>
    </g>
   </g>
   <g id="line2d_8">
    <path clip-path="url(#p53aae06b3a)" d="M 292.125 238.366401 
L 292.125 166.785552 
" style="fill:none;stroke:#404040;stroke-width:3;"/>
   </g>
   <g id="line2d_9">
    <path clip-path="url(#p53aae06b3a)" d="M 292.125 215.714258 
L 292.125 196.142776 
" style="fill:none;stroke:#404040;stroke-width:9;"/>
   </g>
   <g id="line2d_10">
    <path clip-path="url(#p53aae06b3a)" d="M 807.295 216.139207 
L 807.295 196.458036 
" style="fill:none;stroke:#404040;stroke-width:3;"/>
   </g>
   <g id="line2d_11">
    <path clip-path="url(#p53aae06b3a)" d="M 807.295 213.748459 
L 807.295 206.669535 
" style="fill:none;stroke:#404040;stroke-width:9;"/>
   </g>
   <g id="patch_3">
    <path d="M 34.54 255.8 
L 34.54 43.92 
" style="fill:none;stroke:#f0f0f0;stroke-linecap:square;stroke-linejoin:miter;stroke-width:3;"/>
   </g>
   <g id="patch_4">
    <path d="M 1064.88 255.8 
L 1064.88 43.92 
" style="fill:none;stroke:#f0f0f0;stroke-linecap:square;stroke-linejoin:miter;stroke-width:3;"/>
   </g>
   <g id="patch_5">
    <path d="M 34.54 255.8 
L 1064.88 255.8 
" style="fill:none;stroke:#f0f0f0;stroke-linecap:square;stroke-linejoin:miter;stroke-width:3;"/>
   </g>
   <g id="patch_6">
    <path d="M 34.54 43.92 
L 1064.88 43.92 
" style="fill:none;stroke:#f0f0f0;stroke-linecap:square;stroke-linejoin:miter;stroke-width:3;"/>
   </g>
   <g id="PathCollection_1">
    <defs>
     <path d="M 0 3 
C 0.795609 3 1.55874 2.683901 2.12132 2.12132 
C 2.683901 1.55874 3 0.795609 3 0 
C 3 -0.795609 2.683901 -1.55874 2.12132 -2.12132 
C 1.55874 -2.683901 0.795609 -3 0 -3 
C -0.795609 -3 -1.55874 -2.683901 -2.12132 -2.12132 
C -2.683901 -1.55874 -3 -0.795609 -3 0 
C -3 0.795609 -2.683901 1.55874 -2.12132 2.12132 
C -1.55874 2.683901 -0.795609 3 0 3 
z
" id="m8fbb142327" style="stroke:#404040;stroke-width:0.5;"/>
    </defs>
    <g clip-path="url(#p53aae06b3a)">
     <use style="fill:#ffffff;stroke:#404040;stroke-width:0.5;" x="292.125" xlink:href="#m8fbb142327" y="208.103126"/>
    </g>
   </g>
   <g id="PathCollection_2">
    <g clip-path="url(#p53aae06b3a)">
     <use style="fill:#ffffff;stroke:#404040;stroke-width:0.5;" x="807.295" xlink:href="#m8fbb142327" y="211.762659"/>
    </g>
   </g>
  </g>
  <g id="text_10">
   <!-- Violin Plot of all Continuous Variables -->
   <g style="fill:#262626;" transform="translate(416.035547 16.496719)scale(0.15 -0.15)">
    <defs>
     <path d="M 28.171875 0 
L 0.4375 71.578125 
L 10.6875 71.578125 
L 29.296875 19.578125 
Q 31.546875 13.328125 33.0625 7.859375 
Q 34.71875 13.71875 36.921875 19.578125 
L 56.25 71.578125 
L 65.921875 71.578125 
L 37.890625 0 
z
" id="ArialMT-86"/>
     <path d="M 6.640625 61.46875 
L 6.640625 71.578125 
L 15.4375 71.578125 
L 15.4375 61.46875 
z
M 6.640625 0 
L 6.640625 51.859375 
L 15.4375 51.859375 
L 15.4375 0 
z
" id="ArialMT-105"/>
     <path d="M 3.328125 25.921875 
Q 3.328125 40.328125 11.328125 47.265625 
Q 18.015625 53.03125 27.640625 53.03125 
Q 38.328125 53.03125 45.109375 46.015625 
Q 51.90625 39.015625 51.90625 26.65625 
Q 51.90625 16.65625 48.90625 10.90625 
Q 45.90625 5.171875 40.15625 2 
Q 34.421875 -1.171875 27.640625 -1.171875 
Q 16.75 -1.171875 10.03125 5.8125 
Q 3.328125 12.796875 3.328125 25.921875 
z
M 12.359375 25.921875 
Q 12.359375 15.96875 16.703125 11.015625 
Q 21.046875 6.0625 27.640625 6.0625 
Q 34.1875 6.0625 38.53125 11.03125 
Q 42.875 16.015625 42.875 26.21875 
Q 42.875 35.84375 38.5 40.796875 
Q 34.125 45.75 27.640625 45.75 
Q 21.046875 45.75 16.703125 40.8125 
Q 12.359375 35.890625 12.359375 25.921875 
z
" id="ArialMT-111"/>
     <path d="M 6.390625 0 
L 6.390625 71.578125 
L 15.1875 71.578125 
L 15.1875 0 
z
" id="ArialMT-108"/>
     <path d="M 6.59375 0 
L 6.59375 51.859375 
L 14.5 51.859375 
L 14.5 44.484375 
Q 20.21875 53.03125 31 53.03125 
Q 35.6875 53.03125 39.625 51.34375 
Q 43.5625 49.65625 45.515625 46.921875 
Q 47.46875 44.1875 48.25 40.4375 
Q 48.734375 37.984375 48.734375 31.890625 
L 48.734375 0 
L 39.9375 0 
L 39.9375 31.546875 
Q 39.9375 36.921875 38.90625 39.578125 
Q 37.890625 42.234375 35.28125 43.8125 
Q 32.671875 45.40625 29.15625 45.40625 
Q 23.53125 45.40625 19.453125 41.84375 
Q 15.375 38.28125 15.375 28.328125 
L 15.375 0 
z
" id="ArialMT-110"/>
     <path id="ArialMT-32"/>
     <path d="M 7.71875 0 
L 7.71875 71.578125 
L 34.71875 71.578125 
Q 41.84375 71.578125 45.609375 70.90625 
Q 50.875 70.015625 54.4375 67.546875 
Q 58.015625 65.09375 60.1875 60.640625 
Q 62.359375 56.203125 62.359375 50.875 
Q 62.359375 41.75 56.546875 35.421875 
Q 50.734375 29.109375 35.546875 29.109375 
L 17.1875 29.109375 
L 17.1875 0 
z
M 17.1875 37.546875 
L 35.6875 37.546875 
Q 44.875 37.546875 48.734375 40.96875 
Q 52.59375 44.390625 52.59375 50.59375 
Q 52.59375 55.078125 50.3125 58.265625 
Q 48.046875 61.46875 44.34375 62.5 
Q 41.9375 63.140625 35.5 63.140625 
L 17.1875 63.140625 
z
" id="ArialMT-80"/>
     <path d="M 25.78125 7.859375 
L 27.046875 0.09375 
Q 23.34375 -0.6875 20.40625 -0.6875 
Q 15.625 -0.6875 12.984375 0.828125 
Q 10.359375 2.34375 9.28125 4.8125 
Q 8.203125 7.28125 8.203125 15.1875 
L 8.203125 45.015625 
L 1.765625 45.015625 
L 1.765625 51.859375 
L 8.203125 51.859375 
L 8.203125 64.703125 
L 16.9375 69.96875 
L 16.9375 51.859375 
L 25.78125 51.859375 
L 25.78125 45.015625 
L 16.9375 45.015625 
L 16.9375 14.703125 
Q 16.9375 10.9375 17.40625 9.859375 
Q 17.875 8.796875 18.921875 8.15625 
Q 19.96875 7.515625 21.921875 7.515625 
Q 23.390625 7.515625 25.78125 7.859375 
z
" id="ArialMT-116"/>
     <path d="M 58.796875 25.09375 
L 68.265625 22.703125 
Q 65.28125 11.03125 57.546875 4.90625 
Q 49.8125 -1.21875 38.625 -1.21875 
Q 27.046875 -1.21875 19.796875 3.484375 
Q 12.546875 8.203125 8.765625 17.140625 
Q 4.984375 26.078125 4.984375 36.328125 
Q 4.984375 47.515625 9.25 55.828125 
Q 13.53125 64.15625 21.40625 68.46875 
Q 29.296875 72.796875 38.765625 72.796875 
Q 49.515625 72.796875 56.828125 67.328125 
Q 64.15625 61.859375 67.046875 51.953125 
L 57.71875 49.75 
Q 55.21875 57.5625 50.484375 61.125 
Q 45.75 64.703125 38.578125 64.703125 
Q 30.328125 64.703125 24.78125 60.734375 
Q 19.234375 56.78125 16.984375 50.109375 
Q 14.75 43.453125 14.75 36.375 
Q 14.75 27.25 17.40625 20.4375 
Q 20.0625 13.625 25.671875 10.25 
Q 31.296875 6.890625 37.84375 6.890625 
Q 45.796875 6.890625 51.3125 11.46875 
Q 56.84375 16.0625 58.796875 25.09375 
z
" id="ArialMT-67"/>
     <path d="M 40.578125 0 
L 40.578125 7.625 
Q 34.515625 -1.171875 24.125 -1.171875 
Q 19.53125 -1.171875 15.546875 0.578125 
Q 11.578125 2.34375 9.640625 5 
Q 7.71875 7.671875 6.9375 11.53125 
Q 6.390625 14.109375 6.390625 19.734375 
L 6.390625 51.859375 
L 15.1875 51.859375 
L 15.1875 23.09375 
Q 15.1875 16.21875 15.71875 13.8125 
Q 16.546875 10.359375 19.234375 8.375 
Q 21.921875 6.390625 25.875 6.390625 
Q 29.828125 6.390625 33.296875 8.421875 
Q 36.765625 10.453125 38.203125 13.9375 
Q 39.65625 17.4375 39.65625 24.078125 
L 39.65625 51.859375 
L 48.4375 51.859375 
L 48.4375 0 
z
" id="ArialMT-117"/>
     <path d="M 3.078125 15.484375 
L 11.765625 16.84375 
Q 12.5 11.625 15.84375 8.84375 
Q 19.1875 6.0625 25.203125 6.0625 
Q 31.25 6.0625 34.171875 8.515625 
Q 37.109375 10.984375 37.109375 14.3125 
Q 37.109375 17.28125 34.515625 19 
Q 32.71875 20.171875 25.53125 21.96875 
Q 15.875 24.421875 12.140625 26.203125 
Q 8.40625 27.984375 6.46875 31.125 
Q 4.546875 34.28125 4.546875 38.09375 
Q 4.546875 41.546875 6.125 44.5 
Q 7.71875 47.46875 10.453125 49.421875 
Q 12.5 50.921875 16.03125 51.96875 
Q 19.578125 53.03125 23.640625 53.03125 
Q 29.734375 53.03125 34.34375 51.265625 
Q 38.96875 49.515625 41.15625 46.5 
Q 43.359375 43.5 44.1875 38.484375 
L 35.59375 37.3125 
Q 35.015625 41.3125 32.203125 43.546875 
Q 29.390625 45.796875 24.265625 45.796875 
Q 18.21875 45.796875 15.625 43.796875 
Q 13.03125 41.796875 13.03125 39.109375 
Q 13.03125 37.40625 14.109375 36.03125 
Q 15.1875 34.625 17.484375 33.6875 
Q 18.796875 33.203125 25.25 31.453125 
Q 34.578125 28.953125 38.25 27.359375 
Q 41.9375 25.78125 44.03125 22.75 
Q 46.140625 19.734375 46.140625 15.234375 
Q 46.140625 10.84375 43.578125 6.953125 
Q 41.015625 3.078125 36.171875 0.953125 
Q 31.34375 -1.171875 25.25 -1.171875 
Q 15.140625 -1.171875 9.84375 3.03125 
Q 4.546875 7.234375 3.078125 15.484375 
z
" id="ArialMT-115"/>
     <path d="M 14.703125 0 
L 6.546875 0 
L 6.546875 71.578125 
L 15.328125 71.578125 
L 15.328125 46.046875 
Q 20.90625 53.03125 29.546875 53.03125 
Q 34.328125 53.03125 38.59375 51.09375 
Q 42.875 49.171875 45.625 45.671875 
Q 48.390625 42.1875 49.953125 37.25 
Q 51.515625 32.328125 51.515625 26.703125 
Q 51.515625 13.375 44.921875 6.09375 
Q 38.328125 -1.171875 29.109375 -1.171875 
Q 19.921875 -1.171875 14.703125 6.5 
z
M 14.59375 26.3125 
Q 14.59375 17 17.140625 12.84375 
Q 21.296875 6.0625 28.375 6.0625 
Q 34.125 6.0625 38.328125 11.0625 
Q 42.53125 16.0625 42.53125 25.984375 
Q 42.53125 36.140625 38.5 40.96875 
Q 34.46875 45.796875 28.765625 45.796875 
Q 23 45.796875 18.796875 40.796875 
Q 14.59375 35.796875 14.59375 26.3125 
z
" id="ArialMT-98"/>
    </defs>
    <use xlink:href="#ArialMT-86"/>
    <use x="64.949219" xlink:href="#ArialMT-105"/>
    <use x="87.166016" xlink:href="#ArialMT-111"/>
    <use x="142.78125" xlink:href="#ArialMT-108"/>
    <use x="164.998047" xlink:href="#ArialMT-105"/>
    <use x="187.214844" xlink:href="#ArialMT-110"/>
    <use x="242.830078" xlink:href="#ArialMT-32"/>
    <use x="270.613281" xlink:href="#ArialMT-80"/>
    <use x="337.3125" xlink:href="#ArialMT-108"/>
    <use x="359.529297" xlink:href="#ArialMT-111"/>
    <use x="415.144531" xlink:href="#ArialMT-116"/>
    <use x="442.927734" xlink:href="#ArialMT-32"/>
    <use x="470.710938" xlink:href="#ArialMT-111"/>
    <use x="526.326172" xlink:href="#ArialMT-102"/>
    <use x="554.109375" xlink:href="#ArialMT-32"/>
    <use x="581.892578" xlink:href="#ArialMT-97"/>
    <use x="637.507812" xlink:href="#ArialMT-108"/>
    <use x="659.724609" xlink:href="#ArialMT-108"/>
    <use x="681.941406" xlink:href="#ArialMT-32"/>
    <use x="709.724609" xlink:href="#ArialMT-67"/>
    <use x="781.941406" xlink:href="#ArialMT-111"/>
    <use x="837.556641" xlink:href="#ArialMT-110"/>
    <use x="893.171875" xlink:href="#ArialMT-116"/>
    <use x="920.955078" xlink:href="#ArialMT-105"/>
    <use x="943.171875" xlink:href="#ArialMT-110"/>
    <use x="998.787109" xlink:href="#ArialMT-117"/>
    <use x="1054.402344" xlink:href="#ArialMT-111"/>
    <use x="1110.017578" xlink:href="#ArialMT-117"/>
    <use x="1165.632812" xlink:href="#ArialMT-115"/>
    <use x="1215.632812" xlink:href="#ArialMT-32"/>
    <use x="1243.416016" xlink:href="#ArialMT-86"/>
    <use x="1302.740234" xlink:href="#ArialMT-97"/>
    <use x="1358.355469" xlink:href="#ArialMT-114"/>
    <use x="1391.65625" xlink:href="#ArialMT-105"/>
    <use x="1413.873047" xlink:href="#ArialMT-97"/>
    <use x="1469.488281" xlink:href="#ArialMT-98"/>
    <use x="1525.103516" xlink:href="#ArialMT-108"/>
    <use x="1547.320312" xlink:href="#ArialMT-101"/>
    <use x="1602.935547" xlink:href="#ArialMT-115"/>
   </g>
  </g>
 </g>
 <defs>
  <clipPath id="p53aae06b3a">
   <rect height="211.88" width="1030.34" x="34.54" y="43.92"/>
  </clipPath>
 </defs>
</svg>
