<?xml version="1.0" encoding="utf-8" standalone="no"?>
<!DOCTYPE svg PUBLIC "-//W3C//DTD SVG 1.1//EN"
  "http://www.w3.org/Graphics/SVG/1.1/DTD/svg11.dtd">
<!-- Created with matplotlib (https://matplotlib.org/) -->
<svg height="288pt" version="1.1" viewBox="0 0 1080 288" width="1080pt" xmlns="http://www.w3.org/2000/svg" xmlns:xlink="http://www.w3.org/1999/xlink">
 <metadata>
  <rdf:RDF xmlns:cc="http://creativecommons.org/ns#" xmlns:dc="http://purl.org/dc/elements/1.1/" xmlns:rdf="http://www.w3.org/1999/02/22-rdf-syntax-ns#">
   <cc:Work>
    <dc:type rdf:resource="http://purl.org/dc/dcmitype/StillImage"/>
    <dc:date>2022-03-19T15:23:20.668030</dc:date>
    <dc:format>image/svg+xml</dc:format>
    <dc:creator>
     <cc:Agent>
      <dc:title>Matplotlib v3.3.3, https://matplotlib.org/</dc:title>
     </cc:Agent>
    </dc:creator>
   </cc:Work>
  </rdf:RDF>
 </metadata>
 <defs>
  <style type="text/css">*{stroke-linecap:butt;stroke-linejoin:round;}</style>
 </defs>
 <g id="figure_1">
  <g id="patch_1">
   <path d="M 0 288 
L 1080 288 
L 1080 0 
L 0 0 
z
" style="fill:#f0f0f0;"/>
  </g>
  <g id="axes_1">
   <g id="patch_2">
    <path d="M 34.54 255.8 
L 1064.88 255.8 
L 1064.88 43.92 
L 34.54 43.92 
z
" style="fill:#f0f0f0;"/>
   </g>
   <g id="matplotlib.axis_1">
    <g id="xtick_1">
     <g id="text_1">
      <!-- tilpums -->
      <g style="fill:#262626;" transform="translate(274.704609 270.673594)scale(0.11 -0.11)">
       <defs>
        <path d="M 25.78125 7.859375 
L 27.046875 0.09375 
Q 23.34375 -0.6875 20.40625 -0.6875 
Q 15.625 -0.6875 12.984375 0.828125 
Q 10.359375 2.34375 9.28125 4.8125 
Q 8.203125 7.28125 8.203125 15.1875 
L 8.203125 45.015625 
L 1.765625 45.015625 
L 1.765625 51.859375 
L 8.203125 51.859375 
L 8.203125 64.703125 
L 16.9375 69.96875 
L 16.9375 51.859375 
L 25.78125 51.859375 
L 25.78125 45.015625 
L 16.9375 45.015625 
L 16.9375 14.703125 
Q 16.9375 10.9375 17.40625 9.859375 
Q 17.875 8.796875 18.921875 8.15625 
Q 19.96875 7.515625 21.921875 7.515625 
Q 23.390625 7.515625 25.78125 7.859375 
z
" id="ArialMT-116"/>
        <path d="M 6.640625 61.46875 
L 6.640625 71.578125 
L 15.4375 71.578125 
L 15.4375 61.46875 
z
M 6.640625 0 
L 6.640625 51.859375 
L 15.4375 51.859375 
L 15.4375 0 
z
" id="ArialMT-105"/>
        <path d="M 6.390625 0 
L 6.390625 71.578125 
L 15.1875 71.578125 
L 15.1875 0 
z
" id="ArialMT-108"/>
        <path d="M 6.59375 -19.875 
L 6.59375 51.859375 
L 14.59375 51.859375 
L 14.59375 45.125 
Q 17.4375 49.078125 21 51.046875 
Q 24.5625 53.03125 29.640625 53.03125 
Q 36.28125 53.03125 41.359375 49.609375 
Q 46.4375 46.1875 49.015625 39.953125 
Q 51.609375 33.734375 51.609375 26.3125 
Q 51.609375 18.359375 48.75 11.984375 
Q 45.90625 5.609375 40.453125 2.21875 
Q 35.015625 -1.171875 29 -1.171875 
Q 24.609375 -1.171875 21.109375 0.6875 
Q 17.625 2.546875 15.375 5.375 
L 15.375 -19.875 
z
M 14.546875 25.640625 
Q 14.546875 15.625 18.59375 10.84375 
Q 22.65625 6.0625 28.421875 6.0625 
Q 34.28125 6.0625 38.453125 11.015625 
Q 42.625 15.96875 42.625 26.375 
Q 42.625 36.28125 38.546875 41.203125 
Q 34.46875 46.140625 28.8125 46.140625 
Q 23.1875 46.140625 18.859375 40.890625 
Q 14.546875 35.640625 14.546875 25.640625 
z
" id="ArialMT-112"/>
        <path d="M 40.578125 0 
L 40.578125 7.625 
Q 34.515625 -1.171875 24.125 -1.171875 
Q 19.53125 -1.171875 15.546875 0.578125 
Q 11.578125 2.34375 9.640625 5 
Q 7.71875 7.671875 6.9375 11.53125 
Q 6.390625 14.109375 6.390625 19.734375 
L 6.390625 51.859375 
L 15.1875 51.859375 
L 15.1875 23.09375 
Q 15.1875 16.21875 15.71875 13.8125 
Q 16.546875 10.359375 19.234375 8.375 
Q 21.921875 6.390625 25.875 6.390625 
Q 29.828125 6.390625 33.296875 8.421875 
Q 36.765625 10.453125 38.203125 13.9375 
Q 39.65625 17.4375 39.65625 24.078125 
L 39.65625 51.859375 
L 48.4375 51.859375 
L 48.4375 0 
z
" id="ArialMT-117"/>
        <path d="M 6.59375 0 
L 6.59375 51.859375 
L 14.453125 51.859375 
L 14.453125 44.578125 
Q 16.890625 48.390625 20.9375 50.703125 
Q 25 53.03125 30.171875 53.03125 
Q 35.9375 53.03125 39.625 50.640625 
Q 43.3125 48.25 44.828125 43.953125 
Q 50.984375 53.03125 60.84375 53.03125 
Q 68.5625 53.03125 72.703125 48.75 
Q 76.859375 44.484375 76.859375 35.59375 
L 76.859375 0 
L 68.109375 0 
L 68.109375 32.671875 
Q 68.109375 37.9375 67.25 40.25 
Q 66.40625 42.578125 64.15625 43.984375 
Q 61.921875 45.40625 58.890625 45.40625 
Q 53.421875 45.40625 49.796875 41.765625 
Q 46.1875 38.140625 46.1875 30.125 
L 46.1875 0 
L 37.40625 0 
L 37.40625 33.6875 
Q 37.40625 39.546875 35.25 42.46875 
Q 33.109375 45.40625 28.21875 45.40625 
Q 24.515625 45.40625 21.359375 43.453125 
Q 18.21875 41.5 16.796875 37.734375 
Q 15.375 33.984375 15.375 26.90625 
L 15.375 0 
z
" id="ArialMT-109"/>
        <path d="M 3.078125 15.484375 
L 11.765625 16.84375 
Q 12.5 11.625 15.84375 8.84375 
Q 19.1875 6.0625 25.203125 6.0625 
Q 31.25 6.0625 34.171875 8.515625 
Q 37.109375 10.984375 37.109375 14.3125 
Q 37.109375 17.28125 34.515625 19 
Q 32.71875 20.171875 25.53125 21.96875 
Q 15.875 24.421875 12.140625 26.203125 
Q 8.40625 27.984375 6.46875 31.125 
Q 4.546875 34.28125 4.546875 38.09375 
Q 4.546875 41.546875 6.125 44.5 
Q 7.71875 47.46875 10.453125 49.421875 
Q 12.5 50.921875 16.03125 51.96875 
Q 19.578125 53.03125 23.640625 53.03125 
Q 29.734375 53.03125 34.34375 51.265625 
Q 38.96875 49.515625 41.15625 46.5 
Q 43.359375 43.5 44.1875 38.484375 
L 35.59375 37.3125 
Q 35.015625 41.3125 32.203125 43.546875 
Q 29.390625 45.796875 24.265625 45.796875 
Q 18.21875 45.796875 15.625 43.796875 
Q 13.03125 41.796875 13.03125 39.109375 
Q 13.03125 37.40625 14.109375 36.03125 
Q 15.1875 34.625 17.484375 33.6875 
Q 18.796875 33.203125 25.25 31.453125 
Q 34.578125 28.953125 38.25 27.359375 
Q 41.9375 25.78125 44.03125 22.75 
Q 46.140625 19.734375 46.140625 15.234375 
Q 46.140625 10.84375 43.578125 6.953125 
Q 41.015625 3.078125 36.171875 0.953125 
Q 31.34375 -1.171875 25.25 -1.171875 
Q 15.140625 -1.171875 9.84375 3.03125 
Q 4.546875 7.234375 3.078125 15.484375 
z
" id="ArialMT-115"/>
       </defs>
       <use xlink:href="#ArialMT-116"/>
       <use x="27.783203" xlink:href="#ArialMT-105"/>
       <use x="50" xlink:href="#ArialMT-108"/>
       <use x="72.216797" xlink:href="#ArialMT-112"/>
       <use x="127.832031" xlink:href="#ArialMT-117"/>
       <use x="183.447266" xlink:href="#ArialMT-109"/>
       <use x="266.748047" xlink:href="#ArialMT-115"/>
      </g>
     </g>
    </g>
    <g id="xtick_2">
     <g id="text_2">
      <!-- nobraukums -->
      <g style="fill:#262626;" transform="translate(777.03125 270.673594)scale(0.11 -0.11)">
       <defs>
        <path d="M 6.59375 0 
L 6.59375 51.859375 
L 14.5 51.859375 
L 14.5 44.484375 
Q 20.21875 53.03125 31 53.03125 
Q 35.6875 53.03125 39.625 51.34375 
Q 43.5625 49.65625 45.515625 46.921875 
Q 47.46875 44.1875 48.25 40.4375 
Q 48.734375 37.984375 48.734375 31.890625 
L 48.734375 0 
L 39.9375 0 
L 39.9375 31.546875 
Q 39.9375 36.921875 38.90625 39.578125 
Q 37.890625 42.234375 35.28125 43.8125 
Q 32.671875 45.40625 29.15625 45.40625 
Q 23.53125 45.40625 19.453125 41.84375 
Q 15.375 38.28125 15.375 28.328125 
L 15.375 0 
z
" id="ArialMT-110"/>
        <path d="M 3.328125 25.921875 
Q 3.328125 40.328125 11.328125 47.265625 
Q 18.015625 53.03125 27.640625 53.03125 
Q 38.328125 53.03125 45.109375 46.015625 
Q 51.90625 39.015625 51.90625 26.65625 
Q 51.90625 16.65625 48.90625 10.90625 
Q 45.90625 5.171875 40.15625 2 
Q 34.421875 -1.171875 27.640625 -1.171875 
Q 16.75 -1.171875 10.03125 5.8125 
Q 3.328125 12.796875 3.328125 25.921875 
z
M 12.359375 25.921875 
Q 12.359375 15.96875 16.703125 11.015625 
Q 21.046875 6.0625 27.640625 6.0625 
Q 34.1875 6.0625 38.53125 11.03125 
Q 42.875 16.015625 42.875 26.21875 
Q 42.875 35.84375 38.5 40.796875 
Q 34.125 45.75 27.640625 45.75 
Q 21.046875 45.75 16.703125 40.8125 
Q 12.359375 35.890625 12.359375 25.921875 
z
" id="ArialMT-111"/>
        <path d="M 14.703125 0 
L 6.546875 0 
L 6.546875 71.578125 
L 15.328125 71.578125 
L 15.328125 46.046875 
Q 20.90625 53.03125 29.546875 53.03125 
Q 34.328125 53.03125 38.59375 51.09375 
Q 42.875 49.171875 45.625 45.671875 
Q 48.390625 42.1875 49.953125 37.25 
Q 51.515625 32.328125 51.515625 26.703125 
Q 51.515625 13.375 44.921875 6.09375 
Q 38.328125 -1.171875 29.109375 -1.171875 
Q 19.921875 -1.171875 14.703125 6.5 
z
M 14.59375 26.3125 
Q 14.59375 17 17.140625 12.84375 
Q 21.296875 6.0625 28.375 6.0625 
Q 34.125 6.0625 38.328125 11.0625 
Q 42.53125 16.0625 42.53125 25.984375 
Q 42.53125 36.140625 38.5 40.96875 
Q 34.46875 45.796875 28.765625 45.796875 
Q 23 45.796875 18.796875 40.796875 
Q 14.59375 35.796875 14.59375 26.3125 
z
" id="ArialMT-98"/>
        <path d="M 6.5 0 
L 6.5 51.859375 
L 14.40625 51.859375 
L 14.40625 44 
Q 17.4375 49.515625 20 51.265625 
Q 22.5625 53.03125 25.640625 53.03125 
Q 30.078125 53.03125 34.671875 50.203125 
L 31.640625 42.046875 
Q 28.421875 43.953125 25.203125 43.953125 
Q 22.3125 43.953125 20.015625 42.21875 
Q 17.71875 40.484375 16.75 37.40625 
Q 15.28125 32.71875 15.28125 27.15625 
L 15.28125 0 
z
" id="ArialMT-114"/>
        <path d="M 40.4375 6.390625 
Q 35.546875 2.25 31.03125 0.53125 
Q 26.515625 -1.171875 21.34375 -1.171875 
Q 12.796875 -1.171875 8.203125 3 
Q 3.609375 7.171875 3.609375 13.671875 
Q 3.609375 17.484375 5.34375 20.625 
Q 7.078125 23.78125 9.890625 25.6875 
Q 12.703125 27.59375 16.21875 28.5625 
Q 18.796875 29.25 24.03125 29.890625 
Q 34.671875 31.15625 39.703125 32.90625 
Q 39.75 34.71875 39.75 35.203125 
Q 39.75 40.578125 37.25 42.78125 
Q 33.890625 45.75 27.25 45.75 
Q 21.046875 45.75 18.09375 43.578125 
Q 15.140625 41.40625 13.71875 35.890625 
L 5.125 37.0625 
Q 6.296875 42.578125 8.984375 45.96875 
Q 11.671875 49.359375 16.75 51.1875 
Q 21.828125 53.03125 28.515625 53.03125 
Q 35.15625 53.03125 39.296875 51.46875 
Q 43.453125 49.90625 45.40625 47.53125 
Q 47.359375 45.171875 48.140625 41.546875 
Q 48.578125 39.3125 48.578125 33.453125 
L 48.578125 21.734375 
Q 48.578125 9.46875 49.140625 6.21875 
Q 49.703125 2.984375 51.375 0 
L 42.1875 0 
Q 40.828125 2.734375 40.4375 6.390625 
z
M 39.703125 26.03125 
Q 34.90625 24.078125 25.34375 22.703125 
Q 19.921875 21.921875 17.671875 20.9375 
Q 15.4375 19.96875 14.203125 18.09375 
Q 12.984375 16.21875 12.984375 13.921875 
Q 12.984375 10.40625 15.640625 8.0625 
Q 18.3125 5.71875 23.4375 5.71875 
Q 28.515625 5.71875 32.46875 7.9375 
Q 36.421875 10.15625 38.28125 14.015625 
Q 39.703125 17 39.703125 22.796875 
z
" id="ArialMT-97"/>
        <path d="M 6.640625 0 
L 6.640625 71.578125 
L 15.4375 71.578125 
L 15.4375 30.765625 
L 36.234375 51.859375 
L 47.609375 51.859375 
L 27.78125 32.625 
L 49.609375 0 
L 38.765625 0 
L 21.625 26.515625 
L 15.4375 20.5625 
L 15.4375 0 
z
" id="ArialMT-107"/>
       </defs>
       <use xlink:href="#ArialMT-110"/>
       <use x="55.615234" xlink:href="#ArialMT-111"/>
       <use x="111.230469" xlink:href="#ArialMT-98"/>
       <use x="166.845703" xlink:href="#ArialMT-114"/>
       <use x="200.146484" xlink:href="#ArialMT-97"/>
       <use x="255.761719" xlink:href="#ArialMT-117"/>
       <use x="311.376953" xlink:href="#ArialMT-107"/>
       <use x="361.376953" xlink:href="#ArialMT-117"/>
       <use x="416.992188" xlink:href="#ArialMT-109"/>
       <use x="500.292969" xlink:href="#ArialMT-115"/>
      </g>
     </g>
    </g>
   </g>
   <g id="matplotlib.axis_2">
    <g id="ytick_1">
     <g id="line2d_1">
      <path clip-path="url(#p7548c4cec5)" d="M 34.54 222.250317 
L 1064.88 222.250317 
" style="fill:none;stroke:#cbcbcb;"/>
     </g>
     <g id="text_3">
      <!-- −2 -->
      <g style="fill:#262626;" transform="translate(14.998281 226.187114)scale(0.11 -0.11)">
       <defs>
        <path d="M 52.828125 31.203125 
L 5.5625 31.203125 
L 5.5625 39.40625 
L 52.828125 39.40625 
z
" id="ArialMT-8722"/>
        <path d="M 50.34375 8.453125 
L 50.34375 0 
L 3.03125 0 
Q 2.9375 3.171875 4.046875 6.109375 
Q 5.859375 10.9375 9.828125 15.625 
Q 13.8125 20.3125 21.34375 26.46875 
Q 33.015625 36.03125 37.109375 41.625 
Q 41.21875 47.21875 41.21875 52.203125 
Q 41.21875 57.421875 37.46875 61 
Q 33.734375 64.59375 27.734375 64.59375 
Q 21.390625 64.59375 17.578125 60.78125 
Q 13.765625 56.984375 13.71875 50.25 
L 4.6875 51.171875 
Q 5.609375 61.28125 11.65625 66.578125 
Q 17.71875 71.875 27.9375 71.875 
Q 38.234375 71.875 44.234375 66.15625 
Q 50.25 60.453125 50.25 52 
Q 50.25 47.703125 48.484375 43.546875 
Q 46.734375 39.40625 42.65625 34.8125 
Q 38.578125 30.21875 29.109375 22.21875 
Q 21.1875 15.578125 18.9375 13.203125 
Q 16.703125 10.84375 15.234375 8.453125 
z
" id="ArialMT-50"/>
       </defs>
       <use xlink:href="#ArialMT-8722"/>
       <use x="58.398438" xlink:href="#ArialMT-50"/>
      </g>
     </g>
    </g>
    <g id="ytick_2">
     <g id="line2d_2">
      <path clip-path="url(#p7548c4cec5)" d="M 34.54 181.585045 
L 1064.88 181.585045 
" style="fill:none;stroke:#cbcbcb;"/>
     </g>
     <g id="text_4">
      <!-- 0 -->
      <g style="fill:#262626;" transform="translate(21.422969 185.521842)scale(0.11 -0.11)">
       <defs>
        <path d="M 4.15625 35.296875 
Q 4.15625 48 6.765625 55.734375 
Q 9.375 63.484375 14.515625 67.671875 
Q 19.671875 71.875 27.484375 71.875 
Q 33.25 71.875 37.59375 69.546875 
Q 41.9375 67.234375 44.765625 62.859375 
Q 47.609375 58.5 49.21875 52.21875 
Q 50.828125 45.953125 50.828125 35.296875 
Q 50.828125 22.703125 48.234375 14.96875 
Q 45.65625 7.234375 40.5 3 
Q 35.359375 -1.21875 27.484375 -1.21875 
Q 17.140625 -1.21875 11.234375 6.203125 
Q 4.15625 15.140625 4.15625 35.296875 
z
M 13.1875 35.296875 
Q 13.1875 17.671875 17.3125 11.828125 
Q 21.4375 6 27.484375 6 
Q 33.546875 6 37.671875 11.859375 
Q 41.796875 17.71875 41.796875 35.296875 
Q 41.796875 52.984375 37.671875 58.78125 
Q 33.546875 64.59375 27.390625 64.59375 
Q 21.34375 64.59375 17.71875 59.46875 
Q 13.1875 52.9375 13.1875 35.296875 
z
" id="ArialMT-48"/>
       </defs>
       <use xlink:href="#ArialMT-48"/>
      </g>
     </g>
    </g>
    <g id="ytick_3">
     <g id="line2d_3">
      <path clip-path="url(#p7548c4cec5)" d="M 34.54 140.919773 
L 1064.88 140.919773 
" style="fill:none;stroke:#cbcbcb;"/>
     </g>
     <g id="text_5">
      <!-- 2 -->
      <g style="fill:#262626;" transform="translate(21.422969 144.85657)scale(0.11 -0.11)">
       <use xlink:href="#ArialMT-50"/>
      </g>
     </g>
    </g>
    <g id="ytick_4">
     <g id="line2d_4">
      <path clip-path="url(#p7548c4cec5)" d="M 34.54 100.254501 
L 1064.88 100.254501 
" style="fill:none;stroke:#cbcbcb;"/>
     </g>
     <g id="text_6">
      <!-- 4 -->
      <g style="fill:#262626;" transform="translate(21.422969 104.191298)scale(0.11 -0.11)">
       <defs>
        <path d="M 32.328125 0 
L 32.328125 17.140625 
L 1.265625 17.140625 
L 1.265625 25.203125 
L 33.9375 71.578125 
L 41.109375 71.578125 
L 41.109375 25.203125 
L 50.78125 25.203125 
L 50.78125 17.140625 
L 41.109375 17.140625 
L 41.109375 0 
z
M 32.328125 25.203125 
L 32.328125 57.46875 
L 9.90625 25.203125 
z
" id="ArialMT-52"/>
       </defs>
       <use xlink:href="#ArialMT-52"/>
      </g>
     </g>
    </g>
    <g id="ytick_5">
     <g id="line2d_5">
      <path clip-path="url(#p7548c4cec5)" d="M 34.54 59.58923 
L 1064.88 59.58923 
" style="fill:none;stroke:#cbcbcb;"/>
     </g>
     <g id="text_7">
      <!-- 6 -->
      <g style="fill:#262626;" transform="translate(21.422969 63.526027)scale(0.11 -0.11)">
       <defs>
        <path d="M 49.75 54.046875 
L 41.015625 53.375 
Q 39.84375 58.546875 37.703125 60.890625 
Q 34.125 64.65625 28.90625 64.65625 
Q 24.703125 64.65625 21.53125 62.3125 
Q 17.390625 59.28125 14.984375 53.46875 
Q 12.59375 47.65625 12.5 36.921875 
Q 15.671875 41.75 20.265625 44.09375 
Q 24.859375 46.4375 29.890625 46.4375 
Q 38.671875 46.4375 44.84375 39.96875 
Q 51.03125 33.5 51.03125 23.25 
Q 51.03125 16.5 48.125 10.71875 
Q 45.21875 4.9375 40.140625 1.859375 
Q 35.0625 -1.21875 28.609375 -1.21875 
Q 17.625 -1.21875 10.6875 6.859375 
Q 3.765625 14.9375 3.765625 33.5 
Q 3.765625 54.25 11.421875 63.671875 
Q 18.109375 71.875 29.4375 71.875 
Q 37.890625 71.875 43.28125 67.140625 
Q 48.6875 62.40625 49.75 54.046875 
z
M 13.875 23.1875 
Q 13.875 18.65625 15.796875 14.5 
Q 17.71875 10.359375 21.1875 8.171875 
Q 24.65625 6 28.46875 6 
Q 34.03125 6 38.03125 10.484375 
Q 42.046875 14.984375 42.046875 22.703125 
Q 42.046875 30.125 38.078125 34.390625 
Q 34.125 38.671875 28.125 38.671875 
Q 22.171875 38.671875 18.015625 34.390625 
Q 13.875 30.125 13.875 23.1875 
z
" id="ArialMT-54"/>
       </defs>
       <use xlink:href="#ArialMT-54"/>
      </g>
     </g>
    </g>
   </g>
   <g id="PolyCollection_1">
    <defs>
     <path d="M 292.916165 -52.387269 
L 291.333835 -52.387269 
L 290.683914 -54.226277 
L 289.713222 -56.065285 
L 288.39282 -57.904293 
L 286.734829 -59.743302 
L 284.764616 -61.58231 
L 282.462182 -63.421318 
L 279.700005 -65.260327 
L 276.216205 -67.099335 
L 271.648092 -68.938343 
L 265.621537 -70.777352 
L 257.869435 -72.61636 
L 248.350665 -74.455368 
L 237.346217 -76.294376 
L 225.496597 -78.133385 
L 213.713339 -79.972393 
L 202.893647 -81.811401 
L 193.454 -83.65041 
L 184.877151 -85.489418 
L 175.618733 -87.328426 
L 163.66369 -89.167435 
L 147.68049 -91.006443 
L 128.249795 -92.845451 
L 108.385018 -94.68446 
L 92.798008 -96.523468 
L 86.057 -98.362476 
L 90.52191 -100.201484 
L 105.187875 -102.040493 
L 126.088373 -103.879501 
L 148.009686 -105.718509 
L 166.5715 -107.557518 
L 179.662846 -109.396526 
L 187.712265 -111.235534 
L 192.901202 -113.074543 
L 197.840706 -114.913551 
L 204.322699 -116.752559 
L 212.603111 -118.591568 
L 221.391832 -120.430576 
L 228.438818 -122.269584 
L 231.43733 -124.108592 
L 228.952068 -125.947601 
L 221.133742 -127.786609 
L 209.996414 -129.625617 
L 199.04607 -131.464626 
L 192.216191 -133.303634 
L 192.433984 -135.142642 
L 200.475769 -136.981651 
L 214.729934 -138.820659 
L 231.995796 -140.659667 
L 248.843012 -142.498676 
L 262.795346 -144.337684 
L 272.837517 -146.176692 
L 279.221723 -148.0157 
L 282.897863 -149.854709 
L 284.940197 -151.693717 
L 286.185975 -153.532725 
L 287.11871 -155.371734 
L 287.923125 -157.210742 
L 288.613203 -159.04975 
L 289.153782 -160.888759 
L 289.532606 -162.727767 
L 289.777168 -164.566775 
L 289.936076 -166.405784 
L 290.05127 -168.244792 
L 290.139818 -170.0838 
L 290.192705 -171.922808 
L 290.189201 -173.761817 
L 290.119188 -175.600825 
L 290.001555 -177.439833 
L 289.887161 -179.278842 
L 289.842404 -181.11785 
L 289.92106 -182.956858 
L 290.139937 -184.795867 
L 290.471805 -186.634875 
L 290.85844 -188.473883 
L 291.235036 -190.312892 
L 291.552533 -192.1519 
L 291.788324 -193.990908 
L 291.94412 -195.829916 
L 292.036201 -197.668925 
L 292.084855 -199.507933 
L 292.107206 -201.346941 
L 292.114186 -203.18595 
L 292.110142 -205.024958 
L 292.093365 -206.863966 
L 292.056815 -208.702975 
L 291.989615 -210.541983 
L 291.880598 -212.380991 
L 291.724542 -214.22 
L 291.529568 -216.059008 
L 291.321624 -217.898016 
L 291.141409 -219.737024 
L 291.032254 -221.576033 
L 291.023377 -223.415041 
L 291.117242 -225.254049 
L 291.288457 -227.093058 
L 291.494871 -228.932066 
L 291.694295 -230.771074 
L 291.85786 -232.610083 
L 291.974649 -234.449091 
L 292.275351 -234.449091 
L 292.275351 -234.449091 
L 292.39214 -232.610083 
L 292.555705 -230.771074 
L 292.755129 -228.932066 
L 292.961543 -227.093058 
L 293.132758 -225.254049 
L 293.226623 -223.415041 
L 293.217746 -221.576033 
L 293.108591 -219.737024 
L 292.928376 -217.898016 
L 292.720432 -216.059008 
L 292.525458 -214.22 
L 292.369402 -212.380991 
L 292.260385 -210.541983 
L 292.193185 -208.702975 
L 292.156635 -206.863966 
L 292.139858 -205.024958 
L 292.135814 -203.18595 
L 292.142794 -201.346941 
L 292.165145 -199.507933 
L 292.213799 -197.668925 
L 292.30588 -195.829916 
L 292.461676 -193.990908 
L 292.697467 -192.1519 
L 293.014964 -190.312892 
L 293.39156 -188.473883 
L 293.778195 -186.634875 
L 294.110063 -184.795867 
L 294.32894 -182.956858 
L 294.407596 -181.11785 
L 294.362839 -179.278842 
L 294.248445 -177.439833 
L 294.130812 -175.600825 
L 294.060799 -173.761817 
L 294.057295 -171.922808 
L 294.110182 -170.0838 
L 294.19873 -168.244792 
L 294.313924 -166.405784 
L 294.472832 -164.566775 
L 294.717394 -162.727767 
L 295.096218 -160.888759 
L 295.636797 -159.04975 
L 296.326875 -157.210742 
L 297.13129 -155.371734 
L 298.064025 -153.532725 
L 299.309803 -151.693717 
L 301.352137 -149.854709 
L 305.028277 -148.0157 
L 311.412483 -146.176692 
L 321.454654 -144.337684 
L 335.406988 -142.498676 
L 352.254204 -140.659667 
L 369.520066 -138.820659 
L 383.774231 -136.981651 
L 391.816016 -135.142642 
L 392.033809 -133.303634 
L 385.20393 -131.464626 
L 374.253586 -129.625617 
L 363.116258 -127.786609 
L 355.297932 -125.947601 
L 352.81267 -124.108592 
L 355.811182 -122.269584 
L 362.858168 -120.430576 
L 371.646889 -118.591568 
L 379.927301 -116.752559 
L 386.409294 -114.913551 
L 391.348798 -113.074543 
L 396.537735 -111.235534 
L 404.587154 -109.396526 
L 417.6785 -107.557518 
L 436.240314 -105.718509 
L 458.161627 -103.879501 
L 479.062125 -102.040493 
L 493.72809 -100.201484 
L 498.193 -98.362476 
L 491.451992 -96.523468 
L 475.864982 -94.68446 
L 456.000205 -92.845451 
L 436.56951 -91.006443 
L 420.58631 -89.167435 
L 408.631267 -87.328426 
L 399.372849 -85.489418 
L 390.796 -83.65041 
L 381.356353 -81.811401 
L 370.536661 -79.972393 
L 358.753403 -78.133385 
L 346.903783 -76.294376 
L 335.899335 -74.455368 
L 326.380565 -72.61636 
L 318.628463 -70.777352 
L 312.601908 -68.938343 
L 308.033795 -67.099335 
L 304.549995 -65.260327 
L 301.787818 -63.421318 
L 299.485384 -61.58231 
L 297.515171 -59.743302 
L 295.85718 -57.904293 
L 294.536778 -56.065285 
L 293.566086 -54.226277 
L 292.916165 -52.387269 
z
" id="mbe122ffbf8" style="stroke:#404040;stroke-width:3;"/>
    </defs>
    <g clip-path="url(#p7548c4cec5)">
     <use style="fill:#1b86ba;stroke:#404040;stroke-width:3;" x="0" xlink:href="#mbe122ffbf8" y="288"/>
    </g>
   </g>
   <g id="PolyCollection_2">
    <defs>
     <path d="M 808.095634 -41.830909 
L 806.494366 -41.830909 
L 805.778243 -43.652581 
L 804.650839 -45.474253 
L 803.035539 -47.295925 
L 800.919458 -49.117597 
L 798.364938 -50.939269 
L 795.488735 -52.760941 
L 792.417525 -54.582613 
L 789.245683 -56.404285 
L 786.019779 -58.225957 
L 782.754656 -60.047628 
L 779.465829 -61.8693 
L 776.198533 -63.690972 
L 773.042597 -65.512644 
L 770.129371 -67.334316 
L 767.605597 -69.155988 
L 765.57808 -70.97766 
L 764.033239 -72.799332 
L 762.754977 -74.621004 
L 761.280527 -76.442676 
L 758.935811 -78.264348 
L 754.973313 -80.08602 
L 748.793594 -81.907692 
L 740.175691 -83.729364 
L 729.403633 -85.551036 
L 717.197784 -87.372708 
L 704.451574 -89.19438 
L 691.888864 -91.016051 
L 679.815782 -92.837723 
L 668.097558 -94.659395 
L 656.372199 -96.481067 
L 644.392524 -98.302739 
L 632.328526 -100.124411 
L 620.88237 -101.946083 
L 611.153912 -103.767755 
L 604.312295 -105.589427 
L 601.227 -107.411099 
L 602.229955 -109.232771 
L 607.096798 -111.054443 
L 615.204185 -112.876115 
L 625.739191 -114.697787 
L 637.858798 -116.519459 
L 650.779441 -118.341131 
L 663.832027 -120.162803 
L 676.509321 -121.984474 
L 688.49749 -123.806146 
L 699.673314 -125.627818 
L 710.067748 -127.44949 
L 719.812508 -129.271162 
L 729.080453 -131.092834 
L 738.019748 -132.914506 
L 746.688773 -134.736178 
L 755.018184 -136.55785 
L 762.829468 -138.379522 
L 769.910483 -140.201194 
L 776.107467 -142.022866 
L 781.377725 -143.844538 
L 785.775004 -145.66621 
L 789.389067 -147.487882 
L 792.291816 -149.309554 
L 794.530764 -151.131226 
L 796.16844 -152.952897 
L 797.32803 -154.774569 
L 798.20025 -156.596241 
L 798.996462 -158.417913 
L 799.874353 -160.239585 
L 800.883987 -162.061257 
L 801.968451 -163.882929 
L 803.01608 -165.704601 
L 803.928703 -167.526273 
L 804.665325 -169.347945 
L 805.243157 -171.169617 
L 805.70776 -172.991289 
L 806.099306 -174.812961 
L 806.435724 -176.634633 
L 806.716034 -178.456305 
L 806.933694 -180.277977 
L 807.087774 -182.099649 
L 807.186236 -183.92132 
L 807.242764 -185.742992 
L 807.271603 -187.564664 
L 807.283754 -189.386336 
L 807.285328 -191.208008 
L 807.277234 -193.02968 
L 807.255215 -194.851352 
L 807.210123 -196.673024 
L 807.129378 -198.494696 
L 807.000975 -200.316368 
L 806.820437 -202.13804 
L 806.598679 -203.959712 
L 806.366191 -205.781384 
L 806.168724 -207.603056 
L 806.053451 -209.424728 
L 806.050819 -211.2464 
L 806.161545 -213.068072 
L 806.356302 -214.889743 
L 806.588279 -216.711415 
L 806.811305 -218.533087 
L 806.994049 -220.354759 
L 807.124776 -222.176431 
L 807.465224 -222.176431 
L 807.465224 -222.176431 
L 807.595951 -220.354759 
L 807.778695 -218.533087 
L 808.001721 -216.711415 
L 808.233698 -214.889743 
L 808.428455 -213.068072 
L 808.539181 -211.2464 
L 808.536549 -209.424728 
L 808.421276 -207.603056 
L 808.223809 -205.781384 
L 807.991321 -203.959712 
L 807.769563 -202.13804 
L 807.589025 -200.316368 
L 807.460622 -198.494696 
L 807.379877 -196.673024 
L 807.334785 -194.851352 
L 807.312766 -193.02968 
L 807.304672 -191.208008 
L 807.306246 -189.386336 
L 807.318397 -187.564664 
L 807.347236 -185.742992 
L 807.403764 -183.92132 
L 807.502226 -182.099649 
L 807.656306 -180.277977 
L 807.873966 -178.456305 
L 808.154276 -176.634633 
L 808.490694 -174.812961 
L 808.88224 -172.991289 
L 809.346843 -171.169617 
L 809.924675 -169.347945 
L 810.661297 -167.526273 
L 811.57392 -165.704601 
L 812.621549 -163.882929 
L 813.706013 -162.061257 
L 814.715647 -160.239585 
L 815.593538 -158.417913 
L 816.38975 -156.596241 
L 817.26197 -154.774569 
L 818.42156 -152.952897 
L 820.059236 -151.131226 
L 822.298184 -149.309554 
L 825.200933 -147.487882 
L 828.814996 -145.66621 
L 833.212275 -143.844538 
L 838.482533 -142.022866 
L 844.679517 -140.201194 
L 851.760532 -138.379522 
L 859.571816 -136.55785 
L 867.901227 -134.736178 
L 876.570252 -132.914506 
L 885.509547 -131.092834 
L 894.777492 -129.271162 
L 904.522252 -127.44949 
L 914.916686 -125.627818 
L 926.09251 -123.806146 
L 938.080679 -121.984474 
L 950.757973 -120.162803 
L 963.810559 -118.341131 
L 976.731202 -116.519459 
L 988.850809 -114.697787 
L 999.385815 -112.876115 
L 1007.493202 -111.054443 
L 1012.360045 -109.232771 
L 1013.363 -107.411099 
L 1010.277705 -105.589427 
L 1003.436088 -103.767755 
L 993.70763 -101.946083 
L 982.261474 -100.124411 
L 970.197476 -98.302739 
L 958.217801 -96.481067 
L 946.492442 -94.659395 
L 934.774218 -92.837723 
L 922.701136 -91.016051 
L 910.138426 -89.19438 
L 897.392216 -87.372708 
L 885.186367 -85.551036 
L 874.414309 -83.729364 
L 865.796406 -81.907692 
L 859.616687 -80.08602 
L 855.654189 -78.264348 
L 853.309473 -76.442676 
L 851.835023 -74.621004 
L 850.556761 -72.799332 
L 849.01192 -70.97766 
L 846.984403 -69.155988 
L 844.460629 -67.334316 
L 841.547403 -65.512644 
L 838.391467 -63.690972 
L 835.124171 -61.8693 
L 831.835344 -60.047628 
L 828.570221 -58.225957 
L 825.344317 -56.404285 
L 822.172475 -54.582613 
L 819.101265 -52.760941 
L 816.225062 -50.939269 
L 813.670542 -49.117597 
L 811.554461 -47.295925 
L 809.939161 -45.474253 
L 808.811757 -43.652581 
L 808.095634 -41.830909 
z
" id="md3b94ab2b8" style="stroke:#404040;stroke-width:3;"/>
    </defs>
    <g clip-path="url(#p7548c4cec5)">
     <use style="fill:#e36149;stroke:#404040;stroke-width:3;" x="0" xlink:href="#md3b94ab2b8" y="288"/>
    </g>
   </g>
   <g id="line2d_6">
    <path clip-path="url(#p7548c4cec5)" d="M 292.125 223.81234 
L 292.125 142.821142 
" style="fill:none;stroke:#404040;stroke-width:3;"/>
   </g>
   <g id="line2d_7">
    <path clip-path="url(#p7548c4cec5)" d="M 292.125 192.120132 
L 292.125 170.991993 
" style="fill:none;stroke:#404040;stroke-width:9;"/>
   </g>
   <g id="line2d_8">
    <path clip-path="url(#p7548c4cec5)" d="M 807.295 227.230338 
L 807.295 139.817469 
" style="fill:none;stroke:#404040;stroke-width:3;"/>
   </g>
   <g id="line2d_9">
    <path clip-path="url(#p7548c4cec5)" d="M 807.295 193.194887 
L 807.295 170.166191 
" style="fill:none;stroke:#404040;stroke-width:9;"/>
   </g>
   <g id="patch_3">
    <path d="M 34.54 255.8 
L 34.54 43.92 
" style="fill:none;stroke:#f0f0f0;stroke-linecap:square;stroke-linejoin:miter;stroke-width:3;"/>
   </g>
   <g id="patch_4">
    <path d="M 1064.88 255.8 
L 1064.88 43.92 
" style="fill:none;stroke:#f0f0f0;stroke-linecap:square;stroke-linejoin:miter;stroke-width:3;"/>
   </g>
   <g id="patch_5">
    <path d="M 34.54 255.8 
L 1064.88 255.8 
" style="fill:none;stroke:#f0f0f0;stroke-linecap:square;stroke-linejoin:miter;stroke-width:3;"/>
   </g>
   <g id="patch_6">
    <path d="M 34.54 43.92 
L 1064.88 43.92 
" style="fill:none;stroke:#f0f0f0;stroke-linecap:square;stroke-linejoin:miter;stroke-width:3;"/>
   </g>
   <g id="PathCollection_1">
    <defs>
     <path d="M 0 3 
C 0.795609 3 1.55874 2.683901 2.12132 2.12132 
C 2.683901 1.55874 3 0.795609 3 0 
C 3 -0.795609 2.683901 -1.55874 2.12132 -2.12132 
C 1.55874 -2.683901 0.795609 -3 0 -3 
C -0.795609 -3 -1.55874 -2.683901 -2.12132 -2.12132 
C -2.683901 -1.55874 -3 -0.795609 -3 0 
C -3 0.795609 -2.683901 1.55874 -2.12132 2.12132 
C -1.55874 2.683901 -0.795609 3 0 3 
z
" id="m594157ce7c" style="stroke:#404040;stroke-width:0.5;"/>
    </defs>
    <g clip-path="url(#p7548c4cec5)">
     <use style="fill:#ffffff;stroke:#404040;stroke-width:0.5;" x="292.125" xlink:href="#m594157ce7c" y="188.598776"/>
    </g>
   </g>
   <g id="PathCollection_2">
    <g clip-path="url(#p7548c4cec5)">
     <use style="fill:#ffffff;stroke:#404040;stroke-width:0.5;" x="807.295" xlink:href="#m594157ce7c" y="181.172946"/>
    </g>
   </g>
  </g>
  <g id="text_8">
   <!-- Violin Plot of all Continuous Variables -->
   <g style="fill:#262626;" transform="translate(416.035547 16.496719)scale(0.15 -0.15)">
    <defs>
     <path d="M 28.171875 0 
L 0.4375 71.578125 
L 10.6875 71.578125 
L 29.296875 19.578125 
Q 31.546875 13.328125 33.0625 7.859375 
Q 34.71875 13.71875 36.921875 19.578125 
L 56.25 71.578125 
L 65.921875 71.578125 
L 37.890625 0 
z
" id="ArialMT-86"/>
     <path id="ArialMT-32"/>
     <path d="M 7.71875 0 
L 7.71875 71.578125 
L 34.71875 71.578125 
Q 41.84375 71.578125 45.609375 70.90625 
Q 50.875 70.015625 54.4375 67.546875 
Q 58.015625 65.09375 60.1875 60.640625 
Q 62.359375 56.203125 62.359375 50.875 
Q 62.359375 41.75 56.546875 35.421875 
Q 50.734375 29.109375 35.546875 29.109375 
L 17.1875 29.109375 
L 17.1875 0 
z
M 17.1875 37.546875 
L 35.6875 37.546875 
Q 44.875 37.546875 48.734375 40.96875 
Q 52.59375 44.390625 52.59375 50.59375 
Q 52.59375 55.078125 50.3125 58.265625 
Q 48.046875 61.46875 44.34375 62.5 
Q 41.9375 63.140625 35.5 63.140625 
L 17.1875 63.140625 
z
" id="ArialMT-80"/>
     <path d="M 8.6875 0 
L 8.6875 45.015625 
L 0.921875 45.015625 
L 0.921875 51.859375 
L 8.6875 51.859375 
L 8.6875 57.375 
Q 8.6875 62.59375 9.625 65.140625 
Q 10.890625 68.5625 14.078125 70.671875 
Q 17.28125 72.796875 23.046875 72.796875 
Q 26.765625 72.796875 31.25 71.921875 
L 29.9375 64.265625 
Q 27.203125 64.75 24.75 64.75 
Q 20.75 64.75 19.09375 63.03125 
Q 17.4375 61.328125 17.4375 56.640625 
L 17.4375 51.859375 
L 27.546875 51.859375 
L 27.546875 45.015625 
L 17.4375 45.015625 
L 17.4375 0 
z
" id="ArialMT-102"/>
     <path d="M 58.796875 25.09375 
L 68.265625 22.703125 
Q 65.28125 11.03125 57.546875 4.90625 
Q 49.8125 -1.21875 38.625 -1.21875 
Q 27.046875 -1.21875 19.796875 3.484375 
Q 12.546875 8.203125 8.765625 17.140625 
Q 4.984375 26.078125 4.984375 36.328125 
Q 4.984375 47.515625 9.25 55.828125 
Q 13.53125 64.15625 21.40625 68.46875 
Q 29.296875 72.796875 38.765625 72.796875 
Q 49.515625 72.796875 56.828125 67.328125 
Q 64.15625 61.859375 67.046875 51.953125 
L 57.71875 49.75 
Q 55.21875 57.5625 50.484375 61.125 
Q 45.75 64.703125 38.578125 64.703125 
Q 30.328125 64.703125 24.78125 60.734375 
Q 19.234375 56.78125 16.984375 50.109375 
Q 14.75 43.453125 14.75 36.375 
Q 14.75 27.25 17.40625 20.4375 
Q 20.0625 13.625 25.671875 10.25 
Q 31.296875 6.890625 37.84375 6.890625 
Q 45.796875 6.890625 51.3125 11.46875 
Q 56.84375 16.0625 58.796875 25.09375 
z
" id="ArialMT-67"/>
     <path d="M 42.09375 16.703125 
L 51.171875 15.578125 
Q 49.03125 7.625 43.21875 3.21875 
Q 37.40625 -1.171875 28.375 -1.171875 
Q 17 -1.171875 10.328125 5.828125 
Q 3.65625 12.84375 3.65625 25.484375 
Q 3.65625 38.578125 10.390625 45.796875 
Q 17.140625 53.03125 27.875 53.03125 
Q 38.28125 53.03125 44.875 45.953125 
Q 51.46875 38.875 51.46875 26.03125 
Q 51.46875 25.25 51.421875 23.6875 
L 12.75 23.6875 
Q 13.234375 15.140625 17.578125 10.59375 
Q 21.921875 6.0625 28.421875 6.0625 
Q 33.25 6.0625 36.671875 8.59375 
Q 40.09375 11.140625 42.09375 16.703125 
z
M 13.234375 30.90625 
L 42.1875 30.90625 
Q 41.609375 37.453125 38.875 40.71875 
Q 34.671875 45.796875 27.984375 45.796875 
Q 21.921875 45.796875 17.796875 41.75 
Q 13.671875 37.703125 13.234375 30.90625 
z
" id="ArialMT-101"/>
    </defs>
    <use xlink:href="#ArialMT-86"/>
    <use x="64.949219" xlink:href="#ArialMT-105"/>
    <use x="87.166016" xlink:href="#ArialMT-111"/>
    <use x="142.78125" xlink:href="#ArialMT-108"/>
    <use x="164.998047" xlink:href="#ArialMT-105"/>
    <use x="187.214844" xlink:href="#ArialMT-110"/>
    <use x="242.830078" xlink:href="#ArialMT-32"/>
    <use x="270.613281" xlink:href="#ArialMT-80"/>
    <use x="337.3125" xlink:href="#ArialMT-108"/>
    <use x="359.529297" xlink:href="#ArialMT-111"/>
    <use x="415.144531" xlink:href="#ArialMT-116"/>
    <use x="442.927734" xlink:href="#ArialMT-32"/>
    <use x="470.710938" xlink:href="#ArialMT-111"/>
    <use x="526.326172" xlink:href="#ArialMT-102"/>
    <use x="554.109375" xlink:href="#ArialMT-32"/>
    <use x="581.892578" xlink:href="#ArialMT-97"/>
    <use x="637.507812" xlink:href="#ArialMT-108"/>
    <use x="659.724609" xlink:href="#ArialMT-108"/>
    <use x="681.941406" xlink:href="#ArialMT-32"/>
    <use x="709.724609" xlink:href="#ArialMT-67"/>
    <use x="781.941406" xlink:href="#ArialMT-111"/>
    <use x="837.556641" xlink:href="#ArialMT-110"/>
    <use x="893.171875" xlink:href="#ArialMT-116"/>
    <use x="920.955078" xlink:href="#ArialMT-105"/>
    <use x="943.171875" xlink:href="#ArialMT-110"/>
    <use x="998.787109" xlink:href="#ArialMT-117"/>
    <use x="1054.402344" xlink:href="#ArialMT-111"/>
    <use x="1110.017578" xlink:href="#ArialMT-117"/>
    <use x="1165.632812" xlink:href="#ArialMT-115"/>
    <use x="1215.632812" xlink:href="#ArialMT-32"/>
    <use x="1243.416016" xlink:href="#ArialMT-86"/>
    <use x="1302.740234" xlink:href="#ArialMT-97"/>
    <use x="1358.355469" xlink:href="#ArialMT-114"/>
    <use x="1391.65625" xlink:href="#ArialMT-105"/>
    <use x="1413.873047" xlink:href="#ArialMT-97"/>
    <use x="1469.488281" xlink:href="#ArialMT-98"/>
    <use x="1525.103516" xlink:href="#ArialMT-108"/>
    <use x="1547.320312" xlink:href="#ArialMT-101"/>
    <use x="1602.935547" xlink:href="#ArialMT-115"/>
   </g>
  </g>
 </g>
 <defs>
  <clipPath id="p7548c4cec5">
   <rect height="211.88" width="1030.34" x="34.54" y="43.92"/>
  </clipPath>
 </defs>
</svg>
